# Blender v2.92.0 OBJ File: ''
# www.blender.org
o Sphere_Sphere.002
v 0.000000 0.707107 -0.707107
v 0.000000 -0.382684 -0.923880
v 0.000000 -0.707107 -0.707107
v 0.000000 -0.923880 -0.382683
v 0.191342 0.923880 -0.331414
v 0.353553 0.707107 -0.612372
v 0.461940 0.382683 -0.800103
v 0.500000 -0.000000 -0.866025
v 0.461940 -0.382684 -0.800103
v 0.353553 -0.707107 -0.612372
v 0.191342 -0.923880 -0.331414
v -0.000000 1.000000 -0.000000
v 0.331413 0.923880 -0.191342
v 0.612372 0.707107 -0.353553
v 0.800103 0.382683 -0.461940
v 0.866025 -0.000000 -0.500000
v 0.800103 -0.382684 -0.461940
v 0.612372 -0.707107 -0.353553
v 0.331413 -0.923880 -0.191342
v 0.382683 0.923880 -0.000000
v 0.707107 0.707107 -0.000000
v 0.923879 0.382683 -0.000000
v 1.000000 -0.000000 -0.000000
v 0.923879 -0.382684 -0.000000
v 0.707107 -0.707107 -0.000000
v 0.382683 -0.923880 -0.000000
v 0.331413 0.923880 0.191341
v 0.612372 0.707107 0.353553
v 0.800103 0.382683 0.461940
v 0.866025 -0.000000 0.500000
v 0.800103 -0.382684 0.461940
v 0.612372 -0.707107 0.353553
v 0.331413 -0.923880 0.191342
v 0.191342 0.923880 0.331413
v 0.353553 0.707107 0.612372
v 0.461940 0.382683 0.800103
v 0.500000 -0.000000 0.866025
v 0.461940 -0.382684 0.800103
v 0.353553 -0.707107 0.612372
v 0.191342 -0.923880 0.331413
v -0.000000 0.923880 0.382683
v -0.000000 0.707107 0.707106
v -0.000000 0.382683 0.923879
v -0.000000 -0.000000 1.000000
v -0.000000 -0.382684 0.923879
v -0.000000 -0.707107 0.707106
v -0.000000 -0.923880 0.382683
v -0.191342 0.923880 0.331413
v -0.353553 0.707107 0.612372
v -0.461940 0.382683 0.800103
v -0.500000 -0.000000 0.866025
v -0.461940 -0.382684 0.800103
v -0.353553 -0.707107 0.612372
v -0.191342 -0.923880 0.331413
v -0.331413 0.923880 0.191341
v -0.612372 0.707107 0.353553
v -0.800103 0.382683 0.461940
v -0.866025 -0.000000 0.500000
v -0.800103 -0.382684 0.461940
v -0.612372 -0.707107 0.353553
v -0.331413 -0.923880 0.191341
v -0.382683 0.923880 -0.000000
v -0.707107 0.707107 -0.000000
v -0.923879 0.382683 -0.000000
v -1.000000 -0.000000 -0.000000
v -0.923879 -0.382684 -0.000000
v -0.707107 -0.707107 -0.000000
v -0.382683 -0.923880 -0.000000
v -0.331413 0.923880 -0.191342
v -0.612372 0.707107 -0.353554
v -0.800103 0.382683 -0.461940
v -0.866025 -0.000000 -0.500000
v -0.800103 -0.382684 -0.461940
v -0.612372 -0.707107 -0.353554
v -0.331413 -0.923880 -0.191342
v 0.000000 -1.000000 -0.000000
v -0.191342 0.923880 -0.331414
v -0.353553 0.707107 -0.612373
v -0.461940 0.382683 -0.800103
v -0.500000 -0.000000 -0.866025
v -0.461940 -0.382684 -0.800103
v -0.353553 -0.707107 -0.612373
v -0.191342 -0.923880 -0.331414
v 0.000000 0.923880 -0.382683
v 0.000000 0.382683 -0.923880
v 0.000000 -0.000000 -1.000000
vt 0.000000 0.500000
vt 0.500000 0.500000
vt 0.500000 1.000000
vt 0.500000 0.500000
vt 1.000000 0.500000
vt 1.000000 1.000000
vt 1.000000 0.500000
vt 0.500000 1.000000
vt 0.500000 0.500000
vt 1.000000 0.500000
vt 0.500000 1.000000
vt 0.500000 0.500000
vt 1.000000 0.500000
vt 0.500000 1.000000
vt 0.500000 0.500000
vt 0.000000 1.000000
vt 0.000000 0.500000
vt 0.000000 1.000000
vt 0.000000 0.500000
vt 0.000000 0.500000
vt 0.000000 1.000000
vt 0.500000 0.500000
vt 0.000000 1.000000
vt 0.000000 0.500000
vt 0.500000 0.500000
vt 0.000000 1.000000
vt 0.000000 0.500000
vt 0.500000 0.500000
vt 1.000000 1.000000
vt 0.500000 1.000000
vt 1.000000 0.500000
vt 0.500000 1.000000
vt 0.500000 0.500000
vt 1.000000 0.500000
vt 0.500000 1.000000
vt 1.000000 0.500000
vt 1.000000 1.000000
vt 0.000000 0.500000
vt 0.000000 1.000000
vt 0.000000 0.500000
vt 0.500000 0.500000
vt 0.000000 1.000000
vt 0.000000 0.500000
vt 0.500000 0.500000
vt 0.000000 1.000000
vt 0.000000 0.500000
vt 0.500000 0.500000
vt 0.000000 1.000000
vt 0.000000 0.500000
vt 0.000000 0.500000
vt 0.500000 1.000000
vt 1.000000 0.500000
vt 1.000000 1.000000
vt 1.000000 0.500000
vt 0.500000 1.000000
vt 1.000000 0.500000
vt 0.500000 1.000000
vt 1.000000 0.500000
vt 0.500000 1.000000
vt 1.000000 0.500000
vt 0.500000 1.000000
vt 0.500000 0.500000
vt 0.500000 0.500000
vt 1.000000 1.000000
vt 0.500000 0.500000
vt 0.500000 1.000000
vt 0.500000 0.500000
vt 0.000000 1.000000
vt 0.000000 0.500000
vt 0.000000 1.000000
vt 0.000000 0.500000
vt 0.000000 1.000000
vt 0.000000 0.500000
vt 1.000000 0.500000
vt 1.000000 0.500000
vt 0.500000 1.000000
vt 1.000000 0.500000
vt 1.000000 1.000000
vt 1.000000 0.500000
vt 0.500000 1.000000
vt 0.500000 0.500000
vt 1.000000 0.500000
vt 0.500000 1.000000
vt 0.500000 0.500000
vt 1.000000 0.500000
vt 0.500000 1.000000
vt 0.500000 0.500000
vt 0.000000 1.000000
vt 0.000000 0.500000
vt 0.000000 1.000000
vt 0.000000 0.500000
vt 0.000000 1.000000
vt 0.000000 0.500000
vt 0.000000 0.500000
vt 0.500000 1.000000
vt 0.500000 0.500000
vt 0.000000 1.000000
vt 0.000000 0.500000
vt 1.000000 0.500000
vt 0.500000 1.000000
vt 0.500000 0.500000
vt 1.000000 0.500000
vt 0.500000 1.000000
vt 0.500000 0.500000
vt 1.000000 0.500000
vt 0.500000 1.000000
vt 0.500000 0.500000
vt 1.000000 1.000000
vt 0.000000 1.000000
vt 0.000000 0.500000
vt 0.000000 1.000000
vt 0.000000 0.500000
vt 0.500000 0.500000
vt 0.000000 1.000000
vt 0.000000 0.500000
vt 0.500000 0.500000
vt 0.000000 1.000000
vt 0.000000 0.500000
vt 0.000000 0.500000
vt 0.500000 1.000000
vt 0.000000 1.000000
vt 0.000000 0.500000
vt 0.500000 1.000000
vt 1.000000 0.500000
vt 1.000000 1.000000
vt 1.000000 0.500000
vt 0.500000 1.000000
vt 1.000000 0.500000
vt 0.500000 1.000000
vt 0.500000 0.500000
vt 1.000000 1.000000
vt 0.500000 0.500000
vt 1.000000 1.000000
vt 0.500000 0.500000
vt 0.500000 1.000000
vt 0.000000 0.500000
vt 0.500000 1.000000
vt 0.000000 1.000000
vt 0.500000 0.500000
vt 0.000000 1.000000
vt 0.000000 0.500000
vt 0.000000 0.500000
vt 0.500000 1.000000
vt 0.000000 1.000000
vt 1.000000 0.500000
vt 1.000000 0.500000
vt 0.500000 0.500000
vt 1.000000 0.500000
vt 0.500000 1.000000
vt 1.000000 0.500000
vt 0.500000 1.000000
vt 0.500000 0.500000
vt 1.000000 0.500000
vt 0.500000 1.000000
vt 0.500000 0.500000
vt 0.500000 0.500000
vt 1.000000 1.000000
vt 0.500000 1.000000
vt 0.000000 1.000000
vt 0.000000 0.500000
vt 0.000000 1.000000
vt 0.000000 0.500000
vt 0.000000 1.000000
vt 0.000000 0.500000
vt 0.000000 0.500000
vt 0.500000 1.000000
vt 1.000000 0.500000
vt 1.000000 1.000000
vt 1.000000 0.500000
vt 0.500000 1.000000
vt 0.500000 0.500000
vt 1.000000 0.500000
vt 0.500000 1.000000
vt 0.500000 0.500000
vt 1.000000 0.500000
vt 0.500000 1.000000
vt 0.500000 0.500000
vt 0.500000 0.500000
vt 1.000000 1.000000
vt 0.000000 1.000000
vt 0.000000 0.500000
vt 0.000000 1.000000
vt 0.000000 0.500000
vt 0.000000 0.500000
vt 0.500000 1.000000
vt 0.000000 1.000000
vt 0.500000 0.500000
vt 0.000000 1.000000
vt 0.000000 0.500000
vt 0.500000 0.500000
vt 0.000000 1.000000
vt 0.000000 0.500000
vt 0.000000 0.500000
vt 0.500000 1.000000
vt 1.000000 0.500000
vt 1.000000 1.000000
vt 0.500000 0.500000
vt 1.000000 1.000000
vt 0.500000 1.000000
vt 1.000000 0.500000
vt 0.500000 1.000000
vt 1.000000 0.500000
vt 0.500000 1.000000
vt 0.000000 0.500000
vt 0.000000 1.000000
vt 0.500000 0.500000
vt 0.500000 1.000000
vt 0.000000 0.500000
vt 0.500000 1.000000
vt 0.000000 1.000000
vt 0.000000 0.500000
vt 0.500000 1.000000
vt 0.000000 1.000000
vt 0.500000 0.500000
vt 0.000000 1.000000
vt 0.000000 0.500000
vt 1.000000 0.500000
vt 1.000000 0.500000
vt 0.500000 0.500000
vt 1.000000 0.500000
vt 0.500000 0.500000
vt 1.000000 1.000000
vt 1.000000 1.000000
vt 1.000000 1.000000
vt 1.000000 1.000000
vt 0.500000 1.000000
vt 1.000000 0.500000
vt 1.000000 1.000000
vt 1.000000 1.000000
vt 1.000000 1.000000
vt 1.000000 1.000000
vt 1.000000 1.000000
vt 1.000000 1.000000
vt 0.500000 1.000000
vt 1.000000 1.000000
vt 1.000000 1.000000
vt 1.000000 1.000000
vt 1.000000 1.000000
vt 1.000000 1.000000
vt 0.500000 1.000000
vt 1.000000 1.000000
vt 1.000000 1.000000
vt 1.000000 1.000000
vt 1.000000 1.000000
vt 1.000000 1.000000
vt 1.000000 0.500000
vt 1.000000 1.000000
vt 1.000000 1.000000
vt 1.000000 1.000000
vt 1.000000 1.000000
vt 1.000000 1.000000
vt 1.000000 0.500000
vt 1.000000 1.000000
vt 1.000000 1.000000
vt 1.000000 1.000000
vt 1.000000 0.500000
vt 1.000000 1.000000
vt 1.000000 1.000000
vt 0.500000 1.000000
vt 1.000000 1.000000
vt 1.000000 1.000000
vt 1.000000 1.000000
vn 0.0522 0.9794 -0.1948
vn 0.0522 -0.9794 -0.1948
vn 0.2175 -0.5423 -0.8116
vn 0.2542 0.1887 -0.9486
vn 0.1472 0.8224 -0.5495
vn 0.1472 -0.8224 -0.5495
vn 0.2542 -0.1887 -0.9486
vn 0.2175 0.5423 -0.8116
vn 0.6944 0.1887 -0.6944
vn 0.4023 0.8224 -0.4023
vn 0.4023 -0.8224 -0.4023
vn 0.6944 -0.1887 -0.6944
vn 0.5941 0.5423 -0.5941
vn 0.1426 0.9794 -0.1426
vn 0.1426 -0.9794 -0.1426
vn 0.5941 -0.5423 -0.5941
vn 0.5495 -0.8224 -0.1472
vn 0.9486 -0.1887 -0.2542
vn 0.8116 0.5423 -0.2175
vn 0.1948 0.9794 -0.0522
vn 0.1948 -0.9794 -0.0522
vn 0.8116 -0.5423 -0.2175
vn 0.9486 0.1887 -0.2542
vn 0.5495 0.8224 -0.1472
vn 0.8116 0.5423 0.2175
vn 0.1948 0.9794 0.0522
vn 0.1948 -0.9794 0.0522
vn 0.8116 -0.5423 0.2175
vn 0.9486 0.1887 0.2542
vn 0.5495 0.8224 0.1472
vn 0.5495 -0.8224 0.1472
vn 0.9486 -0.1887 0.2542
vn 0.1426 -0.9794 0.1426
vn 0.5941 -0.5423 0.5941
vn 0.6944 0.1887 0.6944
vn 0.4023 0.8224 0.4023
vn 0.4023 -0.8224 0.4023
vn 0.6944 -0.1887 0.6944
vn 0.5941 0.5423 0.5941
vn 0.1426 0.9794 0.1426
vn 0.1472 0.8224 0.5495
vn 0.1472 -0.8224 0.5495
vn 0.2542 -0.1887 0.9486
vn 0.2175 0.5423 0.8116
vn 0.0522 0.9794 0.1948
vn 0.0522 -0.9794 0.1948
vn 0.2175 -0.5423 0.8116
vn 0.2542 0.1887 0.9486
vn -0.1472 -0.8224 0.5495
vn -0.2542 -0.1887 0.9486
vn -0.2175 0.5423 0.8116
vn -0.0522 0.9794 0.1948
vn -0.0522 -0.9794 0.1948
vn -0.2175 -0.5423 0.8116
vn -0.2542 0.1887 0.9486
vn -0.1472 0.8224 0.5495
vn -0.1426 0.9794 0.1426
vn -0.1426 -0.9794 0.1426
vn -0.5941 -0.5423 0.5941
vn -0.6944 0.1887 0.6944
vn -0.4023 0.8224 0.4023
vn -0.4023 -0.8224 0.4023
vn -0.6944 -0.1887 0.6944
vn -0.5941 0.5423 0.5941
vn -0.8116 -0.5423 0.2175
vn -0.9486 0.1887 0.2542
vn -0.5495 0.8224 0.1472
vn -0.5495 -0.8224 0.1472
vn -0.9486 -0.1887 0.2542
vn -0.8116 0.5423 0.2175
vn -0.1948 0.9794 0.0522
vn -0.1948 -0.9794 0.0522
vn -0.5495 -0.8224 -0.1472
vn -0.9486 -0.1887 -0.2542
vn -0.8116 0.5423 -0.2175
vn -0.1948 0.9794 -0.0522
vn -0.1948 -0.9794 -0.0522
vn -0.8116 -0.5423 -0.2175
vn -0.9486 0.1887 -0.2542
vn -0.5495 0.8224 -0.1472
vn -0.6944 -0.1887 -0.6944
vn -0.5941 0.5423 -0.5941
vn -0.1426 0.9794 -0.1426
vn -0.1426 -0.9794 -0.1426
vn -0.5941 -0.5423 -0.5941
vn -0.6944 0.1887 -0.6944
vn -0.4023 0.8224 -0.4023
vn -0.4023 -0.8224 -0.4023
vn -0.0522 -0.9794 -0.1948
vn -0.2175 -0.5423 -0.8116
vn -0.2542 0.1887 -0.9486
vn -0.1472 0.8224 -0.5495
vn -0.1472 -0.8224 -0.5495
vn -0.2542 -0.1887 -0.9486
vn -0.2175 0.5423 -0.8116
vn -0.0522 0.9794 -0.1948
s off
f 84/1/1 12/2/1 5/3/1
f 76/4/2 4/5/2 11/6/2
f 2/7/3 10/8/3 3/9/3
f 85/10/4 8/11/4 86/12/4
f 84/13/5 6/14/5 1/15/5
f 3/9/6 11/16/6 4/17/6
f 86/12/7 9/18/7 2/19/7
f 85/20/8 6/14/8 7/21/8
f 7/22/9 16/23/9 8/24/9
f 5/25/10 14/26/10 6/27/10
f 11/28/11 18/29/11 19/30/11
f 8/31/12 17/32/12 9/33/12
f 6/34/13 15/35/13 7/22/13
f 5/25/14 12/36/14 13/37/14
f 76/38/15 11/28/15 19/30/15
f 9/33/16 18/39/16 10/40/16
f 18/41/17 26/42/17 19/43/17
f 16/44/18 24/45/18 17/46/18
f 14/47/19 22/48/19 15/49/19
f 13/50/20 12/2/20 20/51/20
f 76/4/21 19/52/21 26/53/21
f 17/54/22 25/55/22 18/41/22
f 15/56/23 23/57/23 16/44/23
f 13/58/24 21/59/24 14/47/24
f 21/60/25 29/61/25 22/62/25
f 20/63/26 12/36/26 27/64/26
f 76/38/27 26/65/27 33/66/27
f 24/67/28 32/68/28 25/69/28
f 22/62/29 30/70/29 23/71/29
f 20/63/30 28/72/30 21/73/30
f 25/74/31 33/66/31 26/65/31
f 23/75/32 31/76/32 24/67/32
f 76/4/33 33/77/33 40/78/33
f 31/79/34 39/80/34 32/81/34
f 29/82/35 37/83/35 30/84/35
f 27/85/36 35/86/36 28/87/36
f 32/81/37 40/88/37 33/89/37
f 30/84/38 38/90/38 31/91/38
f 28/87/39 36/92/39 29/93/39
f 27/94/40 12/2/40 34/95/40
f 34/96/41 42/97/41 35/98/41
f 39/99/42 47/100/42 40/101/42
f 37/102/43 45/103/43 38/104/43
f 35/105/44 43/106/44 36/107/44
f 34/96/45 12/36/45 41/108/45
f 76/38/46 40/101/46 47/100/46
f 38/104/47 46/109/47 39/110/47
f 36/107/48 44/111/48 37/112/48
f 46/113/49 54/114/49 47/115/49
f 44/116/50 52/117/50 45/118/50
f 43/119/51 49/120/51 50/121/51
f 41/122/52 12/2/52 48/123/52
f 76/4/53 47/124/53 54/125/53
f 45/126/54 53/127/54 46/113/54
f 43/128/55 51/129/55 44/116/55
f 42/130/56 48/131/56 49/120/56
f 48/132/57 12/36/57 55/133/57
f 76/38/58 54/134/58 61/135/58
f 53/136/59 59/137/59 60/138/59
f 50/139/60 58/140/60 51/141/60
f 49/142/61 55/143/61 56/144/61
f 53/145/62 61/135/62 54/134/62
f 51/146/63 59/137/63 52/147/63
f 49/148/64 57/149/64 50/139/64
f 59/150/65 67/151/65 60/152/65
f 57/153/66 65/154/66 58/155/66
f 56/156/67 62/157/67 63/158/67
f 60/152/68 68/159/68 61/160/68
f 58/155/69 66/161/69 59/162/69
f 56/156/70 64/163/70 57/164/70
f 55/165/71 12/2/71 62/166/71
f 76/4/72 61/167/72 68/168/72
f 67/169/73 75/170/73 68/171/73
f 65/172/74 73/173/74 66/174/74
f 63/175/75 71/176/75 64/177/75
f 62/178/76 12/36/76 69/179/76
f 76/38/77 68/171/77 75/170/77
f 66/174/78 74/180/78 67/181/78
f 64/177/79 72/182/79 65/183/79
f 63/184/80 69/185/80 70/186/80
f 72/187/81 81/188/81 73/189/81
f 70/190/82 79/191/82 71/192/82
f 69/193/83 12/2/83 77/194/83
f 76/4/84 75/195/84 83/196/84
f 74/197/85 81/198/85 82/199/85
f 71/200/86 80/201/86 72/187/86
f 69/202/87 78/203/87 70/190/87
f 75/204/88 82/199/88 83/205/88
f 76/38/89 83/206/89 4/207/89
f 82/208/90 2/209/90 3/210/90
f 80/211/91 85/212/91 86/213/91
f 77/214/92 1/215/92 78/216/92
f 82/217/93 4/207/93 83/206/93
f 80/218/94 2/209/94 81/219/94
f 78/220/95 85/212/95 79/221/95
f 77/214/96 12/36/96 84/222/96
f 2/7/3 9/223/3 10/8/3
f 85/10/4 7/224/4 8/11/4
f 84/13/5 5/225/5 6/14/5
f 3/9/6 10/8/6 11/16/6
f 86/12/7 8/11/7 9/18/7
f 85/20/8 1/15/8 6/14/8
f 7/22/9 15/35/9 16/23/9
f 5/25/10 13/226/10 14/26/10
f 11/28/11 10/227/11 18/29/11
f 8/31/12 16/228/12 17/32/12
f 6/34/13 14/229/13 15/35/13
f 9/33/16 17/32/16 18/39/16
f 18/41/17 25/55/17 26/42/17
f 16/44/18 23/57/18 24/45/18
f 14/47/19 21/59/19 22/48/19
f 17/54/22 24/230/22 25/55/22
f 15/56/23 22/231/23 23/57/23
f 13/58/24 20/232/24 21/59/24
f 21/60/25 28/233/25 29/61/25
f 24/67/28 31/76/28 32/68/28
f 22/62/29 29/61/29 30/70/29
f 20/63/30 27/234/30 28/72/30
f 25/74/31 32/235/31 33/66/31
f 23/75/32 30/236/32 31/76/32
f 31/79/34 38/237/34 39/80/34
f 29/82/35 36/238/35 37/83/35
f 27/85/36 34/239/36 35/86/36
f 32/81/37 39/80/37 40/88/37
f 30/84/38 37/83/38 38/90/38
f 28/87/39 35/86/39 36/92/39
f 34/96/41 41/240/41 42/97/41
f 39/99/42 46/241/42 47/100/42
f 37/102/43 44/242/43 45/103/43
f 35/105/44 42/243/44 43/106/44
f 38/104/47 45/103/47 46/109/47
f 36/107/48 43/106/48 44/111/48
f 46/113/49 53/127/49 54/114/49
f 44/116/50 51/129/50 52/117/50
f 43/119/51 42/130/51 49/120/51
f 45/126/54 52/244/54 53/127/54
f 43/128/55 50/245/55 51/129/55
f 42/130/56 41/246/56 48/131/56
f 53/136/59 52/147/59 59/137/59
f 50/139/60 57/149/60 58/140/60
f 49/142/61 48/132/61 55/143/61
f 53/145/62 60/247/62 61/135/62
f 51/146/63 58/248/63 59/137/63
f 49/148/64 56/249/64 57/149/64
f 59/150/65 66/250/65 67/151/65
f 57/153/66 64/251/66 65/154/66
f 56/156/67 55/252/67 62/157/67
f 60/152/68 67/151/68 68/159/68
f 58/155/69 65/154/69 66/161/69
f 56/156/70 63/158/70 64/163/70
f 67/169/73 74/253/73 75/170/73
f 65/172/74 72/254/74 73/173/74
f 63/175/75 70/255/75 71/176/75
f 66/174/78 73/173/78 74/180/78
f 64/177/79 71/176/79 72/182/79
f 63/184/80 62/178/80 69/185/80
f 72/187/81 80/201/81 81/188/81
f 70/190/82 78/203/82 79/191/82
f 74/197/85 73/256/85 81/198/85
f 71/200/86 79/257/86 80/201/86
f 69/202/87 77/258/87 78/203/87
f 75/204/88 74/197/88 82/199/88
f 82/208/90 81/219/90 2/209/90
f 80/211/91 79/221/91 85/212/91
f 77/214/92 84/259/92 1/215/92
f 82/217/93 3/260/93 4/207/93
f 80/218/94 86/261/94 2/209/94
f 78/220/95 1/262/95 85/212/95
