<svg xmlns="http://www.w3.org/2000/svg" width="100" height="100" viewBox="0 0 100 100"><rect width="100%" height="100%" fill="#020617"/><defs><clipPath id="tileClip"><rect x="0" y="0" width="100" height="100"/></clipPath></defs><g clip-path="url(#tileClip)"><path d="M -190.00000000000006 -199.99999999999997 L -110.00000000000006 -200.00000000000003 L -69.99999999999999 -130.71796769724497 L -109.99999999999994 -61.4359353944898 L -190.00000000000006 -61.43593539448982 L -230 -130.71796769724486 Z" fill="#3b82f6" fill-opacity="0.4" stroke="#3b82f6" stroke-width="1.5" stroke-linejoin="round"/><path d="M -100.00000000000003 -190.00000000000006 L -99.99999999999997 -110.00000000000006 L -169.28203230275503 -69.99999999999999 L -238.56406460551023 -110.00000000000001 L -238.56406460551025 -189.99999999999994 L -169.282032302755 -230 Z" fill="#3b82f6" fill-opacity="0.4" stroke="#3b82f6" stroke-width="1.5" stroke-linejoin="round"/><path d="M -110 -100 L -190 -100 L -230 -169.2820323027551 L -190.00000000000006 -238.5640646055102 L -110.00000000000006 -238.56406460551025 L -69.99999999999999 -169.28203230275514 Z" fill="#3b82f6" fill-opacity="0.4" stroke="#3b82f6" stroke-width="1.5" stroke-linejoin="round"/><path d="M -200 -110 L -200 -190 L -130.71796769724497 -230 L -61.4359353944898 -190.00000000000006 L -61.435935394489746 -110.00000000000006 L -130.71796769724494 -69.99999999999999 Z" fill="#3b82f6" fill-opacity="0.4" stroke="#3b82f6" stroke-width="1.5" stroke-linejoin="round"/><path d="M -190.00000000000006 -99.99999999999997 L -110.00000000000006 -100.00000000000003 L -69.99999999999999 -30.71796769724498 L -109.99999999999994 38.5640646055102 L -190.00000000000006 38.56406460551018 L -230 -30.71796769724486 Z" fill="#3b82f6" fill-opacity="0.4" stroke="#3b82f6" stroke-width="1.5" stroke-linejoin="round"/><path d="M -100.00000000000003 -90.00000000000003 L -99.99999999999997 -10.000000000000043 L -169.28203230275503 30.00000000000002 L -238.56406460551023 -10.000000000000007 L -238.56406460551025 -89.99999999999994 L -169.282032302755 -130 Z" fill="#3b82f6" fill-opacity="0.4" stroke="#3b82f6" stroke-width="1.5" stroke-linejoin="round"/><path d="M -110 0 L -190 0 L -230 -69.2820323027551 L -190.00000000000006 -138.5640646055102 L -110.00000000000006 -138.56406460551025 L -69.99999999999999 -69.28203230275513 Z" fill="#3b82f6" fill-opacity="0.4" stroke="#3b82f6" stroke-width="1.5" stroke-linejoin="round"/><path d="M -200 -10 L -200 -89.99999999999999 L -130.71796769724497 -130 L -61.4359353944898 -90.00000000000004 L -61.435935394489746 -10.00000000000005 L -130.71796769724494 30.000000000000014 Z" fill="#3b82f6" fill-opacity="0.4" stroke="#3b82f6" stroke-width="1.5" stroke-linejoin="round"/><path d="M -190.00000000000006 2.842170943040401e-14 L -110.00000000000006 -2.842170943040401e-14 L -69.99999999999999 69.28203230275503 L -109.99999999999994 138.5640646055102 L -190.00000000000006 138.56406460551017 L -230 69.28203230275514 Z" fill="#3b82f6" fill-opacity="0.4" stroke="#3b82f6" stroke-width="1.5" stroke-linejoin="round"/><path d="M -100.00000000000003 9.999999999999964 L -99.99999999999997 89.99999999999996 L -169.28203230275503 130.00000000000003 L -238.56406460551023 90 L -238.56406460551025 10.000000000000064 L -169.282032302755 -30.000000000000007 Z" fill="#3b82f6" fill-opacity="0.4" stroke="#3b82f6" stroke-width="1.5" stroke-linejoin="round"/><path d="M -110 100 L -190 100 L -230 30.717967697244898 L -190.00000000000006 -38.5640646055102 L -110.00000000000006 -38.564064605510254 L -69.99999999999999 30.717967697244866 Z" fill="#3b82f6" fill-opacity="0.4" stroke="#3b82f6" stroke-width="1.5" stroke-linejoin="round"/><path d="M -200 90 L -200 10.000000000000014 L -130.71796769724497 -30.000000000000014 L -61.4359353944898 9.999999999999957 L -61.435935394489746 89.99999999999994 L -130.71796769724494 130 Z" fill="#3b82f6" fill-opacity="0.4" stroke="#3b82f6" stroke-width="1.5" stroke-linejoin="round"/><path d="M -190.00000000000006 100.00000000000003 L -110.00000000000006 99.99999999999997 L -69.99999999999999 169.28203230275503 L -109.99999999999994 238.5640646055102 L -190.00000000000006 238.56406460551017 L -230 169.28203230275514 Z" fill="#3b82f6" fill-opacity="0.4" stroke="#3b82f6" stroke-width="1.5" stroke-linejoin="round"/><path d="M -100.00000000000003 109.99999999999996 L -99.99999999999997 189.99999999999994 L -169.28203230275503 230 L -238.56406460551023 190 L -238.56406460551025 110.00000000000006 L -169.282032302755 69.99999999999999 Z" fill="#3b82f6" fill-opacity="0.4" stroke="#3b82f6" stroke-width="1.5" stroke-linejoin="round"/><path d="M -110 200 L -190 200 L -230 130.7179676972449 L -190.00000000000006 61.4359353944898 L -110.00000000000006 61.435935394489746 L -69.99999999999999 130.71796769724486 Z" fill="#3b82f6" fill-opacity="0.4" stroke="#3b82f6" stroke-width="1.5" stroke-linejoin="round"/><path d="M -200 190 L -200 110.00000000000001 L -130.71796769724497 69.99999999999999 L -61.4359353944898 109.99999999999996 L -61.435935394489746 189.99999999999994 L -130.71796769724494 230 Z" fill="#3b82f6" fill-opacity="0.4" stroke="#3b82f6" stroke-width="1.5" stroke-linejoin="round"/><path d="M -190.00000000000006 200.00000000000003 L -110.00000000000006 199.99999999999997 L -69.99999999999999 269.282032302755 L -109.99999999999994 338.5640646055102 L -190.00000000000006 338.56406460551017 L -230 269.28203230275517 Z" fill="#3b82f6" fill-opacity="0.4" stroke="#3b82f6" stroke-width="1.5" stroke-linejoin="round"/><path d="M -100.00000000000003 209.99999999999994 L -99.99999999999997 289.99999999999994 L -169.28203230275503 330 L -238.56406460551023 290 L -238.56406460551025 210.00000000000006 L -169.282032302755 170 Z" fill="#3b82f6" fill-opacity="0.4" stroke="#3b82f6" stroke-width="1.5" stroke-linejoin="round"/><path d="M -110 300 L -190 300 L -230 230.7179676972449 L -190.00000000000006 161.4359353944898 L -110.00000000000006 161.43593539448975 L -69.99999999999999 230.71796769724486 Z" fill="#3b82f6" fill-opacity="0.4" stroke="#3b82f6" stroke-width="1.5" stroke-linejoin="round"/><path d="M -200 290 L -200 210 L -130.71796769724497 170 L -61.4359353944898 209.99999999999994 L -61.435935394489746 289.99999999999994 L -130.71796769724494 330 Z" fill="#3b82f6" fill-opacity="0.4" stroke="#3b82f6" stroke-width="1.5" stroke-linejoin="round"/><path d="M -190.00000000000006 300 L -110.00000000000006 300 L -69.99999999999999 369.282032302755 L -109.99999999999994 438.5640646055102 L -190.00000000000006 438.56406460551017 L -230 369.28203230275517 Z" fill="#3b82f6" fill-opacity="0.4" stroke="#3b82f6" stroke-width="1.5" stroke-linejoin="round"/><path d="M -100.00000000000003 309.99999999999994 L -99.99999999999997 389.99999999999994 L -169.28203230275503 430 L -238.56406460551023 390 L -238.56406460551025 310.00000000000006 L -169.282032302755 270 Z" fill="#3b82f6" fill-opacity="0.4" stroke="#3b82f6" stroke-width="1.5" stroke-linejoin="round"/><path d="M -110 400 L -190 400 L -230 330.7179676972449 L -190.00000000000006 261.4359353944898 L -110.00000000000006 261.4359353944898 L -69.99999999999999 330.7179676972449 Z" fill="#3b82f6" fill-opacity="0.4" stroke="#3b82f6" stroke-width="1.5" stroke-linejoin="round"/><path d="M -200 390 L -200 310 L -130.71796769724497 270 L -61.4359353944898 309.99999999999994 L -61.435935394489746 389.99999999999994 L -130.71796769724494 430 Z" fill="#3b82f6" fill-opacity="0.4" stroke="#3b82f6" stroke-width="1.5" stroke-linejoin="round"/><path d="M -90.00000000000003 -199.99999999999997 L -10.000000000000043 -200.00000000000003 L 30.00000000000002 -130.71796769724497 L -9.999999999999943 -61.4359353944898 L -90.00000000000006 -61.43593539448982 L -130 -130.71796769724486 Z" fill="#3b82f6" fill-opacity="0.4" stroke="#3b82f6" stroke-width="1.5" stroke-linejoin="round"/><path d="M -2.842170943040401e-14 -190.00000000000006 L 2.842170943040401e-14 -110.00000000000006 L -69.28203230275501 -69.99999999999999 L -138.56406460551023 -110.00000000000001 L -138.56406460551025 -189.99999999999994 L -69.282032302755 -230 Z" fill="#3b82f6" fill-opacity="0.4" stroke="#3b82f6" stroke-width="1.5" stroke-linejoin="round"/><path d="M -9.999999999999993 -100 L -89.99999999999997 -100 L -130 -169.2820323027551 L -90.00000000000003 -238.5640646055102 L -10.000000000000043 -238.56406460551025 L 30.00000000000002 -169.28203230275514 Z" fill="#3b82f6" fill-opacity="0.4" stroke="#3b82f6" stroke-width="1.5" stroke-linejoin="round"/><path d="M -100 -110 L -100 -190 L -30.717967697244973 -230 L 38.5640646055102 -190.00000000000006 L 38.564064605510254 -110.00000000000006 L -30.717967697244934 -69.99999999999999 Z" fill="#3b82f6" fill-opacity="0.4" stroke="#3b82f6" stroke-width="1.5" stroke-linejoin="round"/><path d="M -90.00000000000003 -99.99999999999997 L -10.000000000000043 -100.00000000000003 L 30.00000000000002 -30.71796769724498 L -9.999999999999943 38.5640646055102 L -90.00000000000006 38.56406460551018 L -130 -30.71796769724486 Z" fill="#3b82f6" fill-opacity="0.4" stroke="#3b82f6" stroke-width="1.5" stroke-linejoin="round"/><path d="M -2.842170943040401e-14 -90.00000000000003 L 2.842170943040401e-14 -10.000000000000043 L -69.28203230275501 30.00000000000002 L -138.56406460551023 -10.000000000000007 L -138.56406460551025 -89.99999999999994 L -69.282032302755 -130 Z" fill="#3b82f6" fill-opacity="0.4" stroke="#3b82f6" stroke-width="1.5" stroke-linejoin="round"/><path d="M -9.999999999999993 0 L -89.99999999999997 0 L -130 -69.2820323027551 L -90.00000000000003 -138.5640646055102 L -10.000000000000043 -138.56406460551025 L 30.00000000000002 -69.28203230275513 Z" fill="#3b82f6" fill-opacity="0.4" stroke="#3b82f6" stroke-width="1.5" stroke-linejoin="round"/><path d="M -100 -10 L -100 -89.99999999999999 L -30.717967697244973 -130 L 38.5640646055102 -90.00000000000004 L 38.564064605510254 -10.00000000000005 L -30.717967697244934 30.000000000000014 Z" fill="#3b82f6" fill-opacity="0.4" stroke="#3b82f6" stroke-width="1.5" stroke-linejoin="round"/><path d="M -90.00000000000003 2.842170943040401e-14 L -10.000000000000043 -2.842170943040401e-14 L 30.00000000000002 69.28203230275503 L -9.999999999999943 138.5640646055102 L -90.00000000000006 138.56406460551017 L -130 69.28203230275514 Z" fill="#3b82f6" fill-opacity="0.4" stroke="#3b82f6" stroke-width="1.5" stroke-linejoin="round"/><path d="M -2.842170943040401e-14 9.999999999999964 L 2.842170943040401e-14 89.99999999999996 L -69.28203230275501 130.00000000000003 L -138.56406460551023 90 L -138.56406460551025 10.000000000000064 L -69.282032302755 -30.000000000000007 Z" fill="#3b82f6" fill-opacity="0.4" stroke="#3b82f6" stroke-width="1.5" stroke-linejoin="round"/><path d="M -9.999999999999993 100 L -89.99999999999997 100 L -130 30.717967697244898 L -90.00000000000003 -38.5640646055102 L -10.000000000000043 -38.564064605510254 L 30.00000000000002 30.717967697244866 Z" fill="#3b82f6" fill-opacity="0.4" stroke="#3b82f6" stroke-width="1.5" stroke-linejoin="round"/><path d="M -100 90 L -100 10.000000000000014 L -30.717967697244973 -30.000000000000014 L 38.5640646055102 9.999999999999957 L 38.564064605510254 89.99999999999994 L -30.717967697244934 130 Z" fill="#3b82f6" fill-opacity="0.4" stroke="#3b82f6" stroke-width="1.5" stroke-linejoin="round"/><path d="M -90.00000000000003 100.00000000000003 L -10.000000000000043 99.99999999999997 L 30.00000000000002 169.28203230275503 L -9.999999999999943 238.5640646055102 L -90.00000000000006 238.56406460551017 L -130 169.28203230275514 Z" fill="#3b82f6" fill-opacity="0.4" stroke="#3b82f6" stroke-width="1.5" stroke-linejoin="round"/><path d="M -2.842170943040401e-14 109.99999999999996 L 2.842170943040401e-14 189.99999999999994 L -69.28203230275501 230 L -138.56406460551023 190 L -138.56406460551025 110.00000000000006 L -69.282032302755 69.99999999999999 Z" fill="#3b82f6" fill-opacity="0.4" stroke="#3b82f6" stroke-width="1.5" stroke-linejoin="round"/><path d="M -9.999999999999993 200 L -89.99999999999997 200 L -130 130.7179676972449 L -90.00000000000003 61.4359353944898 L -10.000000000000043 61.435935394489746 L 30.00000000000002 130.71796769724486 Z" fill="#3b82f6" fill-opacity="0.4" stroke="#3b82f6" stroke-width="1.5" stroke-linejoin="round"/><path d="M -100 190 L -100 110.00000000000001 L -30.717967697244973 69.99999999999999 L 38.5640646055102 109.99999999999996 L 38.564064605510254 189.99999999999994 L -30.717967697244934 230 Z" fill="#3b82f6" fill-opacity="0.4" stroke="#3b82f6" stroke-width="1.5" stroke-linejoin="round"/><path d="M -90.00000000000003 200.00000000000003 L -10.000000000000043 199.99999999999997 L 30.00000000000002 269.282032302755 L -9.999999999999943 338.5640646055102 L -90.00000000000006 338.56406460551017 L -130 269.28203230275517 Z" fill="#3b82f6" fill-opacity="0.4" stroke="#3b82f6" stroke-width="1.5" stroke-linejoin="round"/><path d="M -2.842170943040401e-14 209.99999999999994 L 2.842170943040401e-14 289.99999999999994 L -69.28203230275501 330 L -138.56406460551023 290 L -138.56406460551025 210.00000000000006 L -69.282032302755 170 Z" fill="#3b82f6" fill-opacity="0.4" stroke="#3b82f6" stroke-width="1.5" stroke-linejoin="round"/><path d="M -9.999999999999993 300 L -89.99999999999997 300 L -130 230.7179676972449 L -90.00000000000003 161.4359353944898 L -10.000000000000043 161.43593539448975 L 30.00000000000002 230.71796769724486 Z" fill="#3b82f6" fill-opacity="0.4" stroke="#3b82f6" stroke-width="1.5" stroke-linejoin="round"/><path d="M -100 290 L -100 210 L -30.717967697244973 170 L 38.5640646055102 209.99999999999994 L 38.564064605510254 289.99999999999994 L -30.717967697244934 330 Z" fill="#3b82f6" fill-opacity="0.4" stroke="#3b82f6" stroke-width="1.5" stroke-linejoin="round"/><path d="M -90.00000000000003 300 L -10.000000000000043 300 L 30.00000000000002 369.282032302755 L -9.999999999999943 438.5640646055102 L -90.00000000000006 438.56406460551017 L -130 369.28203230275517 Z" fill="#3b82f6" fill-opacity="0.4" stroke="#3b82f6" stroke-width="1.5" stroke-linejoin="round"/><path d="M -2.842170943040401e-14 309.99999999999994 L 2.842170943040401e-14 389.99999999999994 L -69.28203230275501 430 L -138.56406460551023 390 L -138.56406460551025 310.00000000000006 L -69.282032302755 270 Z" fill="#3b82f6" fill-opacity="0.4" stroke="#3b82f6" stroke-width="1.5" stroke-linejoin="round"/><path d="M -9.999999999999993 400 L -89.99999999999997 400 L -130 330.7179676972449 L -90.00000000000003 261.4359353944898 L -10.000000000000043 261.4359353944898 L 30.00000000000002 330.7179676972449 Z" fill="#3b82f6" fill-opacity="0.4" stroke="#3b82f6" stroke-width="1.5" stroke-linejoin="round"/><path d="M -100 390 L -100 310 L -30.717967697244973 270 L 38.5640646055102 309.99999999999994 L 38.564064605510254 389.99999999999994 L -30.717967697244934 430 Z" fill="#3b82f6" fill-opacity="0.4" stroke="#3b82f6" stroke-width="1.5" stroke-linejoin="round"/><path d="M 9.999999999999964 -199.99999999999997 L 89.99999999999996 -200.00000000000003 L 130.00000000000003 -130.71796769724497 L 90.00000000000006 -61.4359353944898 L 9.999999999999936 -61.43593539448982 L -30.000000000000007 -130.71796769724486 Z" fill="#3b82f6" fill-opacity="0.4" stroke="#3b82f6" stroke-width="1.5" stroke-linejoin="round"/><path d="M 99.99999999999997 -190.00000000000006 L 100.00000000000003 -110.00000000000006 L 30.717967697244983 -69.99999999999999 L -38.564064605510225 -110.00000000000001 L -38.564064605510254 -189.99999999999994 L 30.717967697244994 -230 Z" fill="#3b82f6" fill-opacity="0.4" stroke="#3b82f6" stroke-width="1.5" stroke-linejoin="round"/><path d="M 90 -100 L 10.000000000000021 -100 L -30.000000000000007 -169.2820323027551 L 9.999999999999964 -238.5640646055102 L 89.99999999999996 -238.56406460551025 L 130.00000000000003 -169.28203230275514 Z" fill="#3b82f6" fill-opacity="0.4" stroke="#3b82f6" stroke-width="1.5" stroke-linejoin="round"/><path d="M 0 -110 L 0 -190 L 69.28203230275503 -230 L 138.5640646055102 -190.00000000000006 L 138.56406460551025 -110.00000000000006 L 69.28203230275507 -69.99999999999999 Z" fill="#3b82f6" fill-opacity="0.4" stroke="#3b82f6" stroke-width="1.5" stroke-linejoin="round"/><path d="M 9.999999999999964 -99.99999999999997 L 89.99999999999996 -100.00000000000003 L 130.00000000000003 -30.71796769724498 L 90.00000000000006 38.5640646055102 L 9.999999999999936 38.56406460551018 L -30.000000000000007 -30.71796769724486 Z" fill="#3b82f6" fill-opacity="0.4" stroke="#3b82f6" stroke-width="1.5" stroke-linejoin="round"/><path d="M 99.99999999999997 -90.00000000000003 L 100.00000000000003 -10.000000000000043 L 30.717967697244983 30.00000000000002 L -38.564064605510225 -10.000000000000007 L -38.564064605510254 -89.99999999999994 L 30.717967697244994 -130 Z" fill="#3b82f6" fill-opacity="0.4" stroke="#3b82f6" stroke-width="1.5" stroke-linejoin="round"/><path d="M 90 0 L 10.000000000000021 0 L -30.000000000000007 -69.2820323027551 L 9.999999999999964 -138.5640646055102 L 89.99999999999996 -138.56406460551025 L 130.00000000000003 -69.28203230275513 Z" fill="#3b82f6" fill-opacity="0.4" stroke="#3b82f6" stroke-width="1.5" stroke-linejoin="round"/><path d="M 0 -10 L 0 -89.99999999999999 L 69.28203230275503 -130 L 138.5640646055102 -90.00000000000004 L 138.56406460551025 -10.00000000000005 L 69.28203230275507 30.000000000000014 Z" fill="#3b82f6" fill-opacity="0.4" stroke="#3b82f6" stroke-width="1.5" stroke-linejoin="round"/><path d="M 9.999999999999964 2.842170943040401e-14 L 89.99999999999996 -2.842170943040401e-14 L 130.00000000000003 69.28203230275503 L 90.00000000000006 138.5640646055102 L 9.999999999999936 138.56406460551017 L -30.000000000000007 69.28203230275514 Z" fill="#3b82f6" fill-opacity="0.4" stroke="#3b82f6" stroke-width="1.5" stroke-linejoin="round"/><path d="M 99.99999999999997 9.999999999999964 L 100.00000000000003 89.99999999999996 L 30.717967697244983 130.00000000000003 L -38.564064605510225 90 L -38.564064605510254 10.000000000000064 L 30.717967697244994 -30.000000000000007 Z" fill="#3b82f6" fill-opacity="0.4" stroke="#3b82f6" stroke-width="1.5" stroke-linejoin="round"/><path d="M 90 100 L 10.000000000000021 100 L -30.000000000000007 30.717967697244898 L 9.999999999999964 -38.5640646055102 L 89.99999999999996 -38.564064605510254 L 130.00000000000003 30.717967697244866 Z" fill="#3b82f6" fill-opacity="0.4" stroke="#3b82f6" stroke-width="1.5" stroke-linejoin="round"/><path d="M 0 90 L 0 10.000000000000014 L 69.28203230275503 -30.000000000000014 L 138.5640646055102 9.999999999999957 L 138.56406460551025 89.99999999999994 L 69.28203230275507 130 Z" fill="#3b82f6" fill-opacity="0.4" stroke="#3b82f6" stroke-width="1.5" stroke-linejoin="round"/><path d="M 9.999999999999964 100.00000000000003 L 89.99999999999996 99.99999999999997 L 130.00000000000003 169.28203230275503 L 90.00000000000006 238.5640646055102 L 9.999999999999936 238.56406460551017 L -30.000000000000007 169.28203230275514 Z" fill="#3b82f6" fill-opacity="0.4" stroke="#3b82f6" stroke-width="1.5" stroke-linejoin="round"/><path d="M 99.99999999999997 109.99999999999996 L 100.00000000000003 189.99999999999994 L 30.717967697244983 230 L -38.564064605510225 190 L -38.564064605510254 110.00000000000006 L 30.717967697244994 69.99999999999999 Z" fill="#3b82f6" fill-opacity="0.4" stroke="#3b82f6" stroke-width="1.5" stroke-linejoin="round"/><path d="M 90 200 L 10.000000000000021 200 L -30.000000000000007 130.7179676972449 L 9.999999999999964 61.4359353944898 L 89.99999999999996 61.435935394489746 L 130.00000000000003 130.71796769724486 Z" fill="#3b82f6" fill-opacity="0.4" stroke="#3b82f6" stroke-width="1.5" stroke-linejoin="round"/><path d="M 0 190 L 0 110.00000000000001 L 69.28203230275503 69.99999999999999 L 138.5640646055102 109.99999999999996 L 138.56406460551025 189.99999999999994 L 69.28203230275507 230 Z" fill="#3b82f6" fill-opacity="0.4" stroke="#3b82f6" stroke-width="1.5" stroke-linejoin="round"/><path d="M 9.999999999999964 200.00000000000003 L 89.99999999999996 199.99999999999997 L 130.00000000000003 269.282032302755 L 90.00000000000006 338.5640646055102 L 9.999999999999936 338.56406460551017 L -30.000000000000007 269.28203230275517 Z" fill="#3b82f6" fill-opacity="0.4" stroke="#3b82f6" stroke-width="1.5" stroke-linejoin="round"/><path d="M 99.99999999999997 209.99999999999994 L 100.00000000000003 289.99999999999994 L 30.717967697244983 330 L -38.564064605510225 290 L -38.564064605510254 210.00000000000006 L 30.717967697244994 170 Z" fill="#3b82f6" fill-opacity="0.4" stroke="#3b82f6" stroke-width="1.5" stroke-linejoin="round"/><path d="M 90 300 L 10.000000000000021 300 L -30.000000000000007 230.7179676972449 L 9.999999999999964 161.4359353944898 L 89.99999999999996 161.43593539448975 L 130.00000000000003 230.71796769724486 Z" fill="#3b82f6" fill-opacity="0.4" stroke="#3b82f6" stroke-width="1.5" stroke-linejoin="round"/><path d="M 0 290 L 0 210 L 69.28203230275503 170 L 138.5640646055102 209.99999999999994 L 138.56406460551025 289.99999999999994 L 69.28203230275507 330 Z" fill="#3b82f6" fill-opacity="0.4" stroke="#3b82f6" stroke-width="1.5" stroke-linejoin="round"/><path d="M 9.999999999999964 300 L 89.99999999999996 300 L 130.00000000000003 369.282032302755 L 90.00000000000006 438.5640646055102 L 9.999999999999936 438.56406460551017 L -30.000000000000007 369.28203230275517 Z" fill="#3b82f6" fill-opacity="0.4" stroke="#3b82f6" stroke-width="1.5" stroke-linejoin="round"/><path d="M 99.99999999999997 309.99999999999994 L 100.00000000000003 389.99999999999994 L 30.717967697244983 430 L -38.564064605510225 390 L -38.564064605510254 310.00000000000006 L 30.717967697244994 270 Z" fill="#3b82f6" fill-opacity="0.4" stroke="#3b82f6" stroke-width="1.5" stroke-linejoin="round"/><path d="M 90 400 L 10.000000000000021 400 L -30.000000000000007 330.7179676972449 L 9.999999999999964 261.4359353944898 L 89.99999999999996 261.4359353944898 L 130.00000000000003 330.7179676972449 Z" fill="#3b82f6" fill-opacity="0.4" stroke="#3b82f6" stroke-width="1.5" stroke-linejoin="round"/><path d="M 0 390 L 0 310 L 69.28203230275503 270 L 138.5640646055102 309.99999999999994 L 138.56406460551025 389.99999999999994 L 69.28203230275507 430 Z" fill="#3b82f6" fill-opacity="0.4" stroke="#3b82f6" stroke-width="1.5" stroke-linejoin="round"/><path d="M 109.99999999999996 -199.99999999999997 L 189.99999999999994 -200.00000000000003 L 230 -130.71796769724497 L 190.00000000000006 -61.4359353944898 L 109.99999999999993 -61.43593539448982 L 69.99999999999999 -130.71796769724486 Z" fill="#3b82f6" fill-opacity="0.4" stroke="#3b82f6" stroke-width="1.5" stroke-linejoin="round"/><path d="M 199.99999999999997 -190.00000000000006 L 200.00000000000003 -110.00000000000006 L 130.71796769724497 -69.99999999999999 L 61.435935394489775 -110.00000000000001 L 61.435935394489746 -189.99999999999994 L 130.717967697245 -230 Z" fill="#3b82f6" fill-opacity="0.4" stroke="#3b82f6" stroke-width="1.5" stroke-linejoin="round"/><path d="M 190 -100 L 110.00000000000001 -100 L 69.99999999999999 -169.2820323027551 L 109.99999999999996 -238.5640646055102 L 189.99999999999994 -238.56406460551025 L 230 -169.28203230275514 Z" fill="#3b82f6" fill-opacity="0.4" stroke="#3b82f6" stroke-width="1.5" stroke-linejoin="round"/><path d="M 100 -110 L 100 -190 L 169.28203230275503 -230 L 238.5640646055102 -190.00000000000006 L 238.56406460551025 -110.00000000000006 L 169.28203230275506 -69.99999999999999 Z" fill="#3b82f6" fill-opacity="0.4" stroke="#3b82f6" stroke-width="1.5" stroke-linejoin="round"/><path d="M 109.99999999999996 -99.99999999999997 L 189.99999999999994 -100.00000000000003 L 230 -30.71796769724498 L 190.00000000000006 38.5640646055102 L 109.99999999999993 38.56406460551018 L 69.99999999999999 -30.71796769724486 Z" fill="#3b82f6" fill-opacity="0.4" stroke="#3b82f6" stroke-width="1.5" stroke-linejoin="round"/><path d="M 199.99999999999997 -90.00000000000003 L 200.00000000000003 -10.000000000000043 L 130.71796769724497 30.00000000000002 L 61.435935394489775 -10.000000000000007 L 61.435935394489746 -89.99999999999994 L 130.717967697245 -130 Z" fill="#3b82f6" fill-opacity="0.4" stroke="#3b82f6" stroke-width="1.5" stroke-linejoin="round"/><path d="M 190 0 L 110.00000000000001 0 L 69.99999999999999 -69.2820323027551 L 109.99999999999996 -138.5640646055102 L 189.99999999999994 -138.56406460551025 L 230 -69.28203230275513 Z" fill="#3b82f6" fill-opacity="0.4" stroke="#3b82f6" stroke-width="1.5" stroke-linejoin="round"/><path d="M 100 -10 L 100 -89.99999999999999 L 169.28203230275503 -130 L 238.5640646055102 -90.00000000000004 L 238.56406460551025 -10.00000000000005 L 169.28203230275506 30.000000000000014 Z" fill="#3b82f6" fill-opacity="0.4" stroke="#3b82f6" stroke-width="1.5" stroke-linejoin="round"/><path d="M 109.99999999999996 2.842170943040401e-14 L 189.99999999999994 -2.842170943040401e-14 L 230 69.28203230275503 L 190.00000000000006 138.5640646055102 L 109.99999999999993 138.56406460551017 L 69.99999999999999 69.28203230275514 Z" fill="#3b82f6" fill-opacity="0.4" stroke="#3b82f6" stroke-width="1.5" stroke-linejoin="round"/><path d="M 199.99999999999997 9.999999999999964 L 200.00000000000003 89.99999999999996 L 130.71796769724497 130.00000000000003 L 61.435935394489775 90 L 61.435935394489746 10.000000000000064 L 130.717967697245 -30.000000000000007 Z" fill="#3b82f6" fill-opacity="0.4" stroke="#3b82f6" stroke-width="1.5" stroke-linejoin="round"/><path d="M 190 100 L 110.00000000000001 100 L 69.99999999999999 30.717967697244898 L 109.99999999999996 -38.5640646055102 L 189.99999999999994 -38.564064605510254 L 230 30.717967697244866 Z" fill="#3b82f6" fill-opacity="0.4" stroke="#3b82f6" stroke-width="1.5" stroke-linejoin="round"/><path d="M 100 90 L 100 10.000000000000014 L 169.28203230275503 -30.000000000000014 L 238.5640646055102 9.999999999999957 L 238.56406460551025 89.99999999999994 L 169.28203230275506 130 Z" fill="#3b82f6" fill-opacity="0.4" stroke="#3b82f6" stroke-width="1.5" stroke-linejoin="round"/><path d="M 109.99999999999996 100.00000000000003 L 189.99999999999994 99.99999999999997 L 230 169.28203230275503 L 190.00000000000006 238.5640646055102 L 109.99999999999993 238.56406460551017 L 69.99999999999999 169.28203230275514 Z" fill="#3b82f6" fill-opacity="0.4" stroke="#3b82f6" stroke-width="1.5" stroke-linejoin="round"/><path d="M 199.99999999999997 109.99999999999996 L 200.00000000000003 189.99999999999994 L 130.71796769724497 230 L 61.435935394489775 190 L 61.435935394489746 110.00000000000006 L 130.717967697245 69.99999999999999 Z" fill="#3b82f6" fill-opacity="0.4" stroke="#3b82f6" stroke-width="1.5" stroke-linejoin="round"/><path d="M 190 200 L 110.00000000000001 200 L 69.99999999999999 130.7179676972449 L 109.99999999999996 61.4359353944898 L 189.99999999999994 61.435935394489746 L 230 130.71796769724486 Z" fill="#3b82f6" fill-opacity="0.4" stroke="#3b82f6" stroke-width="1.5" stroke-linejoin="round"/><path d="M 100 190 L 100 110.00000000000001 L 169.28203230275503 69.99999999999999 L 238.5640646055102 109.99999999999996 L 238.56406460551025 189.99999999999994 L 169.28203230275506 230 Z" fill="#3b82f6" fill-opacity="0.4" stroke="#3b82f6" stroke-width="1.5" stroke-linejoin="round"/><path d="M 109.99999999999996 200.00000000000003 L 189.99999999999994 199.99999999999997 L 230 269.282032302755 L 190.00000000000006 338.5640646055102 L 109.99999999999993 338.56406460551017 L 69.99999999999999 269.28203230275517 Z" fill="#3b82f6" fill-opacity="0.4" stroke="#3b82f6" stroke-width="1.5" stroke-linejoin="round"/><path d="M 199.99999999999997 209.99999999999994 L 200.00000000000003 289.99999999999994 L 130.71796769724497 330 L 61.435935394489775 290 L 61.435935394489746 210.00000000000006 L 130.717967697245 170 Z" fill="#3b82f6" fill-opacity="0.4" stroke="#3b82f6" stroke-width="1.5" stroke-linejoin="round"/><path d="M 190 300 L 110.00000000000001 300 L 69.99999999999999 230.7179676972449 L 109.99999999999996 161.4359353944898 L 189.99999999999994 161.43593539448975 L 230 230.71796769724486 Z" fill="#3b82f6" fill-opacity="0.4" stroke="#3b82f6" stroke-width="1.5" stroke-linejoin="round"/><path d="M 100 290 L 100 210 L 169.28203230275503 170 L 238.5640646055102 209.99999999999994 L 238.56406460551025 289.99999999999994 L 169.28203230275506 330 Z" fill="#3b82f6" fill-opacity="0.4" stroke="#3b82f6" stroke-width="1.5" stroke-linejoin="round"/><path d="M 109.99999999999996 300 L 189.99999999999994 300 L 230 369.282032302755 L 190.00000000000006 438.5640646055102 L 109.99999999999993 438.56406460551017 L 69.99999999999999 369.28203230275517 Z" fill="#3b82f6" fill-opacity="0.4" stroke="#3b82f6" stroke-width="1.5" stroke-linejoin="round"/><path d="M 199.99999999999997 309.99999999999994 L 200.00000000000003 389.99999999999994 L 130.71796769724497 430 L 61.435935394489775 390 L 61.435935394489746 310.00000000000006 L 130.717967697245 270 Z" fill="#3b82f6" fill-opacity="0.4" stroke="#3b82f6" stroke-width="1.5" stroke-linejoin="round"/><path d="M 190 400 L 110.00000000000001 400 L 69.99999999999999 330.7179676972449 L 109.99999999999996 261.4359353944898 L 189.99999999999994 261.4359353944898 L 230 330.7179676972449 Z" fill="#3b82f6" fill-opacity="0.4" stroke="#3b82f6" stroke-width="1.5" stroke-linejoin="round"/><path d="M 100 390 L 100 310 L 169.28203230275503 270 L 238.5640646055102 309.99999999999994 L 238.56406460551025 389.99999999999994 L 169.28203230275506 430 Z" fill="#3b82f6" fill-opacity="0.4" stroke="#3b82f6" stroke-width="1.5" stroke-linejoin="round"/><path d="M 209.99999999999994 -199.99999999999997 L 289.99999999999994 -200.00000000000003 L 330 -130.71796769724497 L 290.00000000000006 -61.4359353944898 L 209.99999999999994 -61.43593539448982 L 170 -130.71796769724486 Z" fill="#3b82f6" fill-opacity="0.4" stroke="#3b82f6" stroke-width="1.5" stroke-linejoin="round"/><path d="M 300 -190.00000000000006 L 300 -110.00000000000006 L 230.71796769724497 -69.99999999999999 L 161.43593539448977 -110.00000000000001 L 161.43593539448975 -189.99999999999994 L 230.717967697245 -230 Z" fill="#3b82f6" fill-opacity="0.4" stroke="#3b82f6" stroke-width="1.5" stroke-linejoin="round"/><path d="M 290 -100 L 210 -100 L 170 -169.2820323027551 L 209.99999999999994 -238.5640646055102 L 289.99999999999994 -238.56406460551025 L 330 -169.28203230275514 Z" fill="#3b82f6" fill-opacity="0.4" stroke="#3b82f6" stroke-width="1.5" stroke-linejoin="round"/><path d="M 200 -110 L 200 -190 L 269.282032302755 -230 L 338.5640646055102 -190.00000000000006 L 338.5640646055102 -110.00000000000006 L 269.28203230275506 -69.99999999999999 Z" fill="#3b82f6" fill-opacity="0.4" stroke="#3b82f6" stroke-width="1.5" stroke-linejoin="round"/><path d="M 209.99999999999994 -99.99999999999997 L 289.99999999999994 -100.00000000000003 L 330 -30.71796769724498 L 290.00000000000006 38.5640646055102 L 209.99999999999994 38.56406460551018 L 170 -30.71796769724486 Z" fill="#3b82f6" fill-opacity="0.4" stroke="#3b82f6" stroke-width="1.5" stroke-linejoin="round"/><path d="M 300 -90.00000000000003 L 300 -10.000000000000043 L 230.71796769724497 30.00000000000002 L 161.43593539448977 -10.000000000000007 L 161.43593539448975 -89.99999999999994 L 230.717967697245 -130 Z" fill="#3b82f6" fill-opacity="0.4" stroke="#3b82f6" stroke-width="1.5" stroke-linejoin="round"/><path d="M 290 0 L 210 0 L 170 -69.2820323027551 L 209.99999999999994 -138.5640646055102 L 289.99999999999994 -138.56406460551025 L 330 -69.28203230275513 Z" fill="#3b82f6" fill-opacity="0.4" stroke="#3b82f6" stroke-width="1.5" stroke-linejoin="round"/><path d="M 200 -10 L 200 -89.99999999999999 L 269.282032302755 -130 L 338.5640646055102 -90.00000000000004 L 338.5640646055102 -10.00000000000005 L 269.28203230275506 30.000000000000014 Z" fill="#3b82f6" fill-opacity="0.4" stroke="#3b82f6" stroke-width="1.5" stroke-linejoin="round"/><path d="M 209.99999999999994 2.842170943040401e-14 L 289.99999999999994 -2.842170943040401e-14 L 330 69.28203230275503 L 290.00000000000006 138.5640646055102 L 209.99999999999994 138.56406460551017 L 170 69.28203230275514 Z" fill="#3b82f6" fill-opacity="0.4" stroke="#3b82f6" stroke-width="1.5" stroke-linejoin="round"/><path d="M 300 9.999999999999964 L 300 89.99999999999996 L 230.71796769724497 130.00000000000003 L 161.43593539448977 90 L 161.43593539448975 10.000000000000064 L 230.717967697245 -30.000000000000007 Z" fill="#3b82f6" fill-opacity="0.4" stroke="#3b82f6" stroke-width="1.5" stroke-linejoin="round"/><path d="M 290 100 L 210 100 L 170 30.717967697244898 L 209.99999999999994 -38.5640646055102 L 289.99999999999994 -38.564064605510254 L 330 30.717967697244866 Z" fill="#3b82f6" fill-opacity="0.4" stroke="#3b82f6" stroke-width="1.5" stroke-linejoin="round"/><path d="M 200 90 L 200 10.000000000000014 L 269.282032302755 -30.000000000000014 L 338.5640646055102 9.999999999999957 L 338.5640646055102 89.99999999999994 L 269.28203230275506 130 Z" fill="#3b82f6" fill-opacity="0.4" stroke="#3b82f6" stroke-width="1.5" stroke-linejoin="round"/><path d="M 209.99999999999994 100.00000000000003 L 289.99999999999994 99.99999999999997 L 330 169.28203230275503 L 290.00000000000006 238.5640646055102 L 209.99999999999994 238.56406460551017 L 170 169.28203230275514 Z" fill="#3b82f6" fill-opacity="0.4" stroke="#3b82f6" stroke-width="1.5" stroke-linejoin="round"/><path d="M 300 109.99999999999996 L 300 189.99999999999994 L 230.71796769724497 230 L 161.43593539448977 190 L 161.43593539448975 110.00000000000006 L 230.717967697245 69.99999999999999 Z" fill="#3b82f6" fill-opacity="0.4" stroke="#3b82f6" stroke-width="1.5" stroke-linejoin="round"/><path d="M 290 200 L 210 200 L 170 130.7179676972449 L 209.99999999999994 61.4359353944898 L 289.99999999999994 61.435935394489746 L 330 130.71796769724486 Z" fill="#3b82f6" fill-opacity="0.4" stroke="#3b82f6" stroke-width="1.5" stroke-linejoin="round"/><path d="M 200 190 L 200 110.00000000000001 L 269.282032302755 69.99999999999999 L 338.5640646055102 109.99999999999996 L 338.5640646055102 189.99999999999994 L 269.28203230275506 230 Z" fill="#3b82f6" fill-opacity="0.4" stroke="#3b82f6" stroke-width="1.5" stroke-linejoin="round"/><path d="M 209.99999999999994 200.00000000000003 L 289.99999999999994 199.99999999999997 L 330 269.282032302755 L 290.00000000000006 338.5640646055102 L 209.99999999999994 338.56406460551017 L 170 269.28203230275517 Z" fill="#3b82f6" fill-opacity="0.4" stroke="#3b82f6" stroke-width="1.5" stroke-linejoin="round"/><path d="M 300 209.99999999999994 L 300 289.99999999999994 L 230.71796769724497 330 L 161.43593539448977 290 L 161.43593539448975 210.00000000000006 L 230.717967697245 170 Z" fill="#3b82f6" fill-opacity="0.4" stroke="#3b82f6" stroke-width="1.5" stroke-linejoin="round"/><path d="M 290 300 L 210 300 L 170 230.7179676972449 L 209.99999999999994 161.4359353944898 L 289.99999999999994 161.43593539448975 L 330 230.71796769724486 Z" fill="#3b82f6" fill-opacity="0.4" stroke="#3b82f6" stroke-width="1.5" stroke-linejoin="round"/><path d="M 200 290 L 200 210 L 269.282032302755 170 L 338.5640646055102 209.99999999999994 L 338.5640646055102 289.99999999999994 L 269.28203230275506 330 Z" fill="#3b82f6" fill-opacity="0.4" stroke="#3b82f6" stroke-width="1.5" stroke-linejoin="round"/><path d="M 209.99999999999994 300 L 289.99999999999994 300 L 330 369.282032302755 L 290.00000000000006 438.5640646055102 L 209.99999999999994 438.56406460551017 L 170 369.28203230275517 Z" fill="#3b82f6" fill-opacity="0.4" stroke="#3b82f6" stroke-width="1.5" stroke-linejoin="round"/><path d="M 300 309.99999999999994 L 300 389.99999999999994 L 230.71796769724497 430 L 161.43593539448977 390 L 161.43593539448975 310.00000000000006 L 230.717967697245 270 Z" fill="#3b82f6" fill-opacity="0.4" stroke="#3b82f6" stroke-width="1.5" stroke-linejoin="round"/><path d="M 290 400 L 210 400 L 170 330.7179676972449 L 209.99999999999994 261.4359353944898 L 289.99999999999994 261.4359353944898 L 330 330.7179676972449 Z" fill="#3b82f6" fill-opacity="0.4" stroke="#3b82f6" stroke-width="1.5" stroke-linejoin="round"/><path d="M 200 390 L 200 310 L 269.282032302755 270 L 338.5640646055102 309.99999999999994 L 338.5640646055102 389.99999999999994 L 269.28203230275506 430 Z" fill="#3b82f6" fill-opacity="0.4" stroke="#3b82f6" stroke-width="1.5" stroke-linejoin="round"/><path d="M 309.99999999999994 -199.99999999999997 L 389.99999999999994 -200.00000000000003 L 430 -130.71796769724497 L 390.00000000000006 -61.4359353944898 L 309.99999999999994 -61.43593539448982 L 270 -130.71796769724486 Z" fill="#3b82f6" fill-opacity="0.4" stroke="#3b82f6" stroke-width="1.5" stroke-linejoin="round"/><path d="M 400 -190.00000000000006 L 400 -110.00000000000006 L 330.717967697245 -69.99999999999999 L 261.4359353944898 -110.00000000000001 L 261.4359353944898 -189.99999999999994 L 330.717967697245 -230 Z" fill="#3b82f6" fill-opacity="0.4" stroke="#3b82f6" stroke-width="1.5" stroke-linejoin="round"/><path d="M 390 -100 L 310 -100 L 270 -169.2820323027551 L 309.99999999999994 -238.5640646055102 L 389.99999999999994 -238.56406460551025 L 430 -169.28203230275514 Z" fill="#3b82f6" fill-opacity="0.4" stroke="#3b82f6" stroke-width="1.5" stroke-linejoin="round"/><path d="M 300 -110 L 300 -190 L 369.282032302755 -230 L 438.5640646055102 -190.00000000000006 L 438.5640646055102 -110.00000000000006 L 369.28203230275506 -69.99999999999999 Z" fill="#3b82f6" fill-opacity="0.4" stroke="#3b82f6" stroke-width="1.5" stroke-linejoin="round"/><path d="M 309.99999999999994 -99.99999999999997 L 389.99999999999994 -100.00000000000003 L 430 -30.71796769724498 L 390.00000000000006 38.5640646055102 L 309.99999999999994 38.56406460551018 L 270 -30.71796769724486 Z" fill="#3b82f6" fill-opacity="0.4" stroke="#3b82f6" stroke-width="1.5" stroke-linejoin="round"/><path d="M 400 -90.00000000000003 L 400 -10.000000000000043 L 330.717967697245 30.00000000000002 L 261.4359353944898 -10.000000000000007 L 261.4359353944898 -89.99999999999994 L 330.717967697245 -130 Z" fill="#3b82f6" fill-opacity="0.4" stroke="#3b82f6" stroke-width="1.5" stroke-linejoin="round"/><path d="M 390 0 L 310 0 L 270 -69.2820323027551 L 309.99999999999994 -138.5640646055102 L 389.99999999999994 -138.56406460551025 L 430 -69.28203230275513 Z" fill="#3b82f6" fill-opacity="0.4" stroke="#3b82f6" stroke-width="1.5" stroke-linejoin="round"/><path d="M 300 -10 L 300 -89.99999999999999 L 369.282032302755 -130 L 438.5640646055102 -90.00000000000004 L 438.5640646055102 -10.00000000000005 L 369.28203230275506 30.000000000000014 Z" fill="#3b82f6" fill-opacity="0.4" stroke="#3b82f6" stroke-width="1.5" stroke-linejoin="round"/><path d="M 309.99999999999994 2.842170943040401e-14 L 389.99999999999994 -2.842170943040401e-14 L 430 69.28203230275503 L 390.00000000000006 138.5640646055102 L 309.99999999999994 138.56406460551017 L 270 69.28203230275514 Z" fill="#3b82f6" fill-opacity="0.4" stroke="#3b82f6" stroke-width="1.5" stroke-linejoin="round"/><path d="M 400 9.999999999999964 L 400 89.99999999999996 L 330.717967697245 130.00000000000003 L 261.4359353944898 90 L 261.4359353944898 10.000000000000064 L 330.717967697245 -30.000000000000007 Z" fill="#3b82f6" fill-opacity="0.4" stroke="#3b82f6" stroke-width="1.5" stroke-linejoin="round"/><path d="M 390 100 L 310 100 L 270 30.717967697244898 L 309.99999999999994 -38.5640646055102 L 389.99999999999994 -38.564064605510254 L 430 30.717967697244866 Z" fill="#3b82f6" fill-opacity="0.4" stroke="#3b82f6" stroke-width="1.5" stroke-linejoin="round"/><path d="M 300 90 L 300 10.000000000000014 L 369.282032302755 -30.000000000000014 L 438.5640646055102 9.999999999999957 L 438.5640646055102 89.99999999999994 L 369.28203230275506 130 Z" fill="#3b82f6" fill-opacity="0.4" stroke="#3b82f6" stroke-width="1.5" stroke-linejoin="round"/><path d="M 309.99999999999994 100.00000000000003 L 389.99999999999994 99.99999999999997 L 430 169.28203230275503 L 390.00000000000006 238.5640646055102 L 309.99999999999994 238.56406460551017 L 270 169.28203230275514 Z" fill="#3b82f6" fill-opacity="0.4" stroke="#3b82f6" stroke-width="1.5" stroke-linejoin="round"/><path d="M 400 109.99999999999996 L 400 189.99999999999994 L 330.717967697245 230 L 261.4359353944898 190 L 261.4359353944898 110.00000000000006 L 330.717967697245 69.99999999999999 Z" fill="#3b82f6" fill-opacity="0.4" stroke="#3b82f6" stroke-width="1.5" stroke-linejoin="round"/><path d="M 390 200 L 310 200 L 270 130.7179676972449 L 309.99999999999994 61.4359353944898 L 389.99999999999994 61.435935394489746 L 430 130.71796769724486 Z" fill="#3b82f6" fill-opacity="0.4" stroke="#3b82f6" stroke-width="1.5" stroke-linejoin="round"/><path d="M 300 190 L 300 110.00000000000001 L 369.282032302755 69.99999999999999 L 438.5640646055102 109.99999999999996 L 438.5640646055102 189.99999999999994 L 369.28203230275506 230 Z" fill="#3b82f6" fill-opacity="0.4" stroke="#3b82f6" stroke-width="1.5" stroke-linejoin="round"/><path d="M 309.99999999999994 200.00000000000003 L 389.99999999999994 199.99999999999997 L 430 269.282032302755 L 390.00000000000006 338.5640646055102 L 309.99999999999994 338.56406460551017 L 270 269.28203230275517 Z" fill="#3b82f6" fill-opacity="0.4" stroke="#3b82f6" stroke-width="1.5" stroke-linejoin="round"/><path d="M 400 209.99999999999994 L 400 289.99999999999994 L 330.717967697245 330 L 261.4359353944898 290 L 261.4359353944898 210.00000000000006 L 330.717967697245 170 Z" fill="#3b82f6" fill-opacity="0.4" stroke="#3b82f6" stroke-width="1.5" stroke-linejoin="round"/><path d="M 390 300 L 310 300 L 270 230.7179676972449 L 309.99999999999994 161.4359353944898 L 389.99999999999994 161.43593539448975 L 430 230.71796769724486 Z" fill="#3b82f6" fill-opacity="0.4" stroke="#3b82f6" stroke-width="1.5" stroke-linejoin="round"/><path d="M 300 290 L 300 210 L 369.282032302755 170 L 438.5640646055102 209.99999999999994 L 438.5640646055102 289.99999999999994 L 369.28203230275506 330 Z" fill="#3b82f6" fill-opacity="0.4" stroke="#3b82f6" stroke-width="1.5" stroke-linejoin="round"/><path d="M 309.99999999999994 300 L 389.99999999999994 300 L 430 369.282032302755 L 390.00000000000006 438.5640646055102 L 309.99999999999994 438.56406460551017 L 270 369.28203230275517 Z" fill="#3b82f6" fill-opacity="0.4" stroke="#3b82f6" stroke-width="1.5" stroke-linejoin="round"/><path d="M 400 309.99999999999994 L 400 389.99999999999994 L 330.717967697245 430 L 261.4359353944898 390 L 261.4359353944898 310.00000000000006 L 330.717967697245 270 Z" fill="#3b82f6" fill-opacity="0.4" stroke="#3b82f6" stroke-width="1.5" stroke-linejoin="round"/><path d="M 390 400 L 310 400 L 270 330.7179676972449 L 309.99999999999994 261.4359353944898 L 389.99999999999994 261.4359353944898 L 430 330.7179676972449 Z" fill="#3b82f6" fill-opacity="0.4" stroke="#3b82f6" stroke-width="1.5" stroke-linejoin="round"/><path d="M 300 390 L 300 310 L 369.282032302755 270 L 438.5640646055102 309.99999999999994 L 438.5640646055102 389.99999999999994 L 369.28203230275506 430 Z" fill="#3b82f6" fill-opacity="0.4" stroke="#3b82f6" stroke-width="1.5" stroke-linejoin="round"/><path d="M -90.00000000000003 -199.99999999999997 L -30.717967697244934 -69.99999999999999 L -100.00000000000003 -190.00000000000006 L -230 -130.71796769724486 Z" fill="#10b981" fill-opacity="0.4" stroke="#10b981" stroke-width="1.5" stroke-linejoin="round"/><path d="M -169.282032302755 -230 L -100 -110 L 30.00000000000002 -169.28203230275514 L -90.00000000000003 -99.99999999999997 L -30.717967697244934 30.000000000000014 L -100.00000000000003 -90.00000000000003 L -230 -30.71796769724486 L -110 -100 Z" fill="#10b981" fill-opacity="0.4" stroke="#10b981" stroke-width="1.5" stroke-linejoin="round"/><path d="M -200 -110 L -69.99999999999999 -169.28203230275514 L -190.00000000000006 -99.99999999999997 L -130.71796769724494 30.000000000000014 Z" fill="#10b981" fill-opacity="0.4" stroke="#10b981" stroke-width="1.5" stroke-linejoin="round"/><path d="M -169.282032302755 -130 L -100 -10 L 30.00000000000002 -69.28203230275513 L -90.00000000000003 2.842170943040401e-14 L -30.717967697244934 130 L -100.00000000000003 9.999999999999964 L -230 69.28203230275514 L -110 0 Z" fill="#10b981" fill-opacity="0.4" stroke="#10b981" stroke-width="1.5" stroke-linejoin="round"/><path d="M -200 -10 L -69.99999999999999 -69.28203230275513 L -190.00000000000006 2.842170943040401e-14 L -130.71796769724494 130 Z" fill="#10b981" fill-opacity="0.4" stroke="#10b981" stroke-width="1.5" stroke-linejoin="round"/><path d="M -169.282032302755 -30.000000000000007 L -100 90 L 30.00000000000002 30.717967697244866 L -90.00000000000003 100.00000000000003 L -30.717967697244934 230 L -100.00000000000003 109.99999999999996 L -230 169.28203230275514 L -110 100 Z" fill="#10b981" fill-opacity="0.4" stroke="#10b981" stroke-width="1.5" stroke-linejoin="round"/><path d="M -200 90 L -69.99999999999999 30.717967697244866 L -190.00000000000006 100.00000000000003 L -130.71796769724494 230 Z" fill="#10b981" fill-opacity="0.4" stroke="#10b981" stroke-width="1.5" stroke-linejoin="round"/><path d="M -169.282032302755 69.99999999999999 L -100 190 L 30.00000000000002 130.71796769724486 L -90.00000000000003 200.00000000000003 L -30.717967697244934 330 L -100.00000000000003 209.99999999999994 L -230 269.28203230275517 L -110 200 Z" fill="#10b981" fill-opacity="0.4" stroke="#10b981" stroke-width="1.5" stroke-linejoin="round"/><path d="M -200 190 L -69.99999999999999 130.71796769724486 L -190.00000000000006 200.00000000000003 L -130.71796769724494 330 Z" fill="#10b981" fill-opacity="0.4" stroke="#10b981" stroke-width="1.5" stroke-linejoin="round"/><path d="M -169.282032302755 170 L -100 290 L 30.00000000000002 230.71796769724486 L -90.00000000000003 300 L -30.717967697244934 430 L -100.00000000000003 309.99999999999994 L -230 369.28203230275517 L -110 300 Z" fill="#10b981" fill-opacity="0.4" stroke="#10b981" stroke-width="1.5" stroke-linejoin="round"/><path d="M -200 290 L -69.99999999999999 230.71796769724486 L -190.00000000000006 300 L -130.71796769724494 430 Z" fill="#10b981" fill-opacity="0.4" stroke="#10b981" stroke-width="1.5" stroke-linejoin="round"/><path d="M -169.282032302755 270 L -100 390 L 30.00000000000002 330.7179676972449 L -110 400 Z" fill="#10b981" fill-opacity="0.4" stroke="#10b981" stroke-width="1.5" stroke-linejoin="round"/><path d="M 9.999999999999964 -199.99999999999997 L 69.28203230275507 -69.99999999999999 L -2.842170943040401e-14 -190.00000000000006 L -130 -130.71796769724486 Z" fill="#10b981" fill-opacity="0.4" stroke="#10b981" stroke-width="1.5" stroke-linejoin="round"/><path d="M -69.282032302755 -230 L 0 -110 L 130.00000000000003 -169.28203230275514 L 9.999999999999964 -99.99999999999997 L 69.28203230275507 30.000000000000014 L -2.842170943040401e-14 -90.00000000000003 L -130 -30.71796769724486 L -9.999999999999993 -100 Z" fill="#10b981" fill-opacity="0.4" stroke="#10b981" stroke-width="1.5" stroke-linejoin="round"/><path d="M -69.282032302755 -130 L 0 -10 L 130.00000000000003 -69.28203230275513 L 9.999999999999964 2.842170943040401e-14 L 69.28203230275507 130 L -2.842170943040401e-14 9.999999999999964 L -130 69.28203230275514 L -9.999999999999993 0 Z" fill="#10b981" fill-opacity="0.4" stroke="#10b981" stroke-width="1.5" stroke-linejoin="round"/><path d="M -69.282032302755 -30.000000000000007 L 0 90 L 130.00000000000003 30.717967697244866 L 9.999999999999964 100.00000000000003 L 69.28203230275507 230 L -2.842170943040401e-14 109.99999999999996 L -130 169.28203230275514 L -9.999999999999993 100 Z" fill="#10b981" fill-opacity="0.4" stroke="#10b981" stroke-width="1.5" stroke-linejoin="round"/><path d="M -69.282032302755 69.99999999999999 L 0 190 L 130.00000000000003 130.71796769724486 L 9.999999999999964 200.00000000000003 L 69.28203230275507 330 L -2.842170943040401e-14 209.99999999999994 L -130 269.28203230275517 L -9.999999999999993 200 Z" fill="#10b981" fill-opacity="0.4" stroke="#10b981" stroke-width="1.5" stroke-linejoin="round"/><path d="M -69.282032302755 170 L 0 290 L 130.00000000000003 230.71796769724486 L 9.999999999999964 300 L 69.28203230275507 430 L -2.842170943040401e-14 309.99999999999994 L -130 369.28203230275517 L -9.999999999999993 300 Z" fill="#10b981" fill-opacity="0.4" stroke="#10b981" stroke-width="1.5" stroke-linejoin="round"/><path d="M -69.282032302755 270 L 0 390 L 130.00000000000003 330.7179676972449 L -9.999999999999993 400 Z" fill="#10b981" fill-opacity="0.4" stroke="#10b981" stroke-width="1.5" stroke-linejoin="round"/><path d="M 109.99999999999996 -199.99999999999997 L 169.28203230275506 -69.99999999999999 L 99.99999999999997 -190.00000000000006 L -30.000000000000007 -130.71796769724486 Z" fill="#10b981" fill-opacity="0.4" stroke="#10b981" stroke-width="1.5" stroke-linejoin="round"/><path d="M 30.717967697244994 -230 L 100 -110 L 230 -169.28203230275514 L 109.99999999999996 -99.99999999999997 L 169.28203230275506 30.000000000000014 L 99.99999999999997 -90.00000000000003 L -30.000000000000007 -30.71796769724486 L 90 -100 Z" fill="#10b981" fill-opacity="0.4" stroke="#10b981" stroke-width="1.5" stroke-linejoin="round"/><path d="M 30.717967697244994 -130 L 100 -10 L 230 -69.28203230275513 L 109.99999999999996 2.842170943040401e-14 L 169.28203230275506 130 L 99.99999999999997 9.999999999999964 L -30.000000000000007 69.28203230275514 L 90 0 Z" fill="#10b981" fill-opacity="0.4" stroke="#10b981" stroke-width="1.5" stroke-linejoin="round"/><path d="M 30.717967697244994 -30.000000000000007 L 100 90 L 230 30.717967697244866 L 109.99999999999996 100.00000000000003 L 169.28203230275506 230 L 99.99999999999997 109.99999999999996 L -30.000000000000007 169.28203230275514 L 90 100 Z" fill="#10b981" fill-opacity="0.4" stroke="#10b981" stroke-width="1.5" stroke-linejoin="round"/><path d="M 30.717967697244994 69.99999999999999 L 100 190 L 230 130.71796769724486 L 109.99999999999996 200.00000000000003 L 169.28203230275506 330 L 99.99999999999997 209.99999999999994 L -30.000000000000007 269.28203230275517 L 90 200 Z" fill="#10b981" fill-opacity="0.4" stroke="#10b981" stroke-width="1.5" stroke-linejoin="round"/><path d="M 30.717967697244994 170 L 100 290 L 230 230.71796769724486 L 109.99999999999996 300 L 169.28203230275506 430 L 99.99999999999997 309.99999999999994 L -30.000000000000007 369.28203230275517 L 90 300 Z" fill="#10b981" fill-opacity="0.4" stroke="#10b981" stroke-width="1.5" stroke-linejoin="round"/><path d="M 30.717967697244994 270 L 100 390 L 230 330.7179676972449 L 90 400 Z" fill="#10b981" fill-opacity="0.4" stroke="#10b981" stroke-width="1.5" stroke-linejoin="round"/><path d="M 209.99999999999994 -199.99999999999997 L 269.28203230275506 -69.99999999999999 L 199.99999999999997 -190.00000000000006 L 69.99999999999999 -130.71796769724486 Z" fill="#10b981" fill-opacity="0.4" stroke="#10b981" stroke-width="1.5" stroke-linejoin="round"/><path d="M 130.717967697245 -230 L 200 -110 L 330 -169.28203230275514 L 209.99999999999994 -99.99999999999997 L 269.28203230275506 30.000000000000014 L 199.99999999999997 -90.00000000000003 L 69.99999999999999 -30.71796769724486 L 190 -100 Z" fill="#10b981" fill-opacity="0.4" stroke="#10b981" stroke-width="1.5" stroke-linejoin="round"/><path d="M 130.717967697245 -130 L 200 -10 L 330 -69.28203230275513 L 209.99999999999994 2.842170943040401e-14 L 269.28203230275506 130 L 199.99999999999997 9.999999999999964 L 69.99999999999999 69.28203230275514 L 190 0 Z" fill="#10b981" fill-opacity="0.4" stroke="#10b981" stroke-width="1.5" stroke-linejoin="round"/><path d="M 130.717967697245 -30.000000000000007 L 200 90 L 330 30.717967697244866 L 209.99999999999994 100.00000000000003 L 269.28203230275506 230 L 199.99999999999997 109.99999999999996 L 69.99999999999999 169.28203230275514 L 190 100 Z" fill="#10b981" fill-opacity="0.4" stroke="#10b981" stroke-width="1.5" stroke-linejoin="round"/><path d="M 130.717967697245 69.99999999999999 L 200 190 L 330 130.71796769724486 L 209.99999999999994 200.00000000000003 L 269.28203230275506 330 L 199.99999999999997 209.99999999999994 L 69.99999999999999 269.28203230275517 L 190 200 Z" fill="#10b981" fill-opacity="0.4" stroke="#10b981" stroke-width="1.5" stroke-linejoin="round"/><path d="M 130.717967697245 170 L 200 290 L 330 230.71796769724486 L 209.99999999999994 300 L 269.28203230275506 430 L 199.99999999999997 309.99999999999994 L 69.99999999999999 369.28203230275517 L 190 300 Z" fill="#10b981" fill-opacity="0.4" stroke="#10b981" stroke-width="1.5" stroke-linejoin="round"/><path d="M 130.717967697245 270 L 200 390 L 330 330.7179676972449 L 190 400 Z" fill="#10b981" fill-opacity="0.4" stroke="#10b981" stroke-width="1.5" stroke-linejoin="round"/><path d="M 309.99999999999994 -199.99999999999997 L 369.28203230275506 -69.99999999999999 L 300 -190.00000000000006 L 170 -130.71796769724486 Z" fill="#10b981" fill-opacity="0.4" stroke="#10b981" stroke-width="1.5" stroke-linejoin="round"/><path d="M 230.717967697245 -230 L 300 -110 L 430 -169.28203230275514 L 309.99999999999994 -99.99999999999997 L 369.28203230275506 30.000000000000014 L 300 -90.00000000000003 L 170 -30.71796769724486 L 290 -100 Z" fill="#10b981" fill-opacity="0.4" stroke="#10b981" stroke-width="1.5" stroke-linejoin="round"/><path d="M 230.717967697245 -130 L 300 -10 L 430 -69.28203230275513 L 309.99999999999994 2.842170943040401e-14 L 369.28203230275506 130 L 300 9.999999999999964 L 170 69.28203230275514 L 290 0 Z" fill="#10b981" fill-opacity="0.4" stroke="#10b981" stroke-width="1.5" stroke-linejoin="round"/><path d="M 230.717967697245 -30.000000000000007 L 300 90 L 430 30.717967697244866 L 309.99999999999994 100.00000000000003 L 369.28203230275506 230 L 300 109.99999999999996 L 170 169.28203230275514 L 290 100 Z" fill="#10b981" fill-opacity="0.4" stroke="#10b981" stroke-width="1.5" stroke-linejoin="round"/><path d="M 230.717967697245 69.99999999999999 L 300 190 L 430 130.71796769724486 L 309.99999999999994 200.00000000000003 L 369.28203230275506 330 L 300 209.99999999999994 L 170 269.28203230275517 L 290 200 Z" fill="#10b981" fill-opacity="0.4" stroke="#10b981" stroke-width="1.5" stroke-linejoin="round"/><path d="M 230.717967697245 170 L 300 290 L 430 230.71796769724486 L 309.99999999999994 300 L 369.28203230275506 430 L 300 309.99999999999994 L 170 369.28203230275517 L 290 300 Z" fill="#10b981" fill-opacity="0.4" stroke="#10b981" stroke-width="1.5" stroke-linejoin="round"/><path d="M 230.717967697245 270 L 300 390 L 430 330.7179676972449 L 290 400 Z" fill="#10b981" fill-opacity="0.4" stroke="#10b981" stroke-width="1.5" stroke-linejoin="round"/><path d="M 330.717967697245 -230 L 400 -90.00000000000003 L 270 -30.71796769724486 L 390 -100 Z" fill="#10b981" fill-opacity="0.4" stroke="#10b981" stroke-width="1.5" stroke-linejoin="round"/><path d="M 330.717967697245 -130 L 400 9.999999999999964 L 270 69.28203230275514 L 390 0 Z" fill="#10b981" fill-opacity="0.4" stroke="#10b981" stroke-width="1.5" stroke-linejoin="round"/><path d="M 330.717967697245 -30.000000000000007 L 400 109.99999999999996 L 270 169.28203230275514 L 390 100 Z" fill="#10b981" fill-opacity="0.4" stroke="#10b981" stroke-width="1.5" stroke-linejoin="round"/><path d="M 330.717967697245 69.99999999999999 L 400 209.99999999999994 L 270 269.28203230275517 L 390 200 Z" fill="#10b981" fill-opacity="0.4" stroke="#10b981" stroke-width="1.5" stroke-linejoin="round"/><path d="M 330.717967697245 170 L 400 309.99999999999994 L 270 369.28203230275517 L 390 300 Z" fill="#10b981" fill-opacity="0.4" stroke="#10b981" stroke-width="1.5" stroke-linejoin="round"/><path d="M -230 -169.2820323027551 L -238.56406460551025 -189.99999999999994 L -200 -190 L -190.00000000000006 -238.5640646055102 L -130.71796769724497 -230 L -110.00000000000006 -238.56406460551025 L -110.00000000000006 -200.00000000000003 L -61.4359353944898 -190.00000000000006 L -69.99999999999999 -130.71796769724497 L -61.435935394489746 -110.00000000000006 L -99.99999999999997 -110.00000000000006 L -109.99999999999994 -61.4359353944898 L -169.28203230275503 -69.99999999999999 L -190.00000000000006 -61.43593539448982 L -190 -100 L -238.56406460551023 -110.00000000000001 Z" fill="#f59e0b" fill-opacity="0.4" stroke="#f59e0b" stroke-width="1.5" stroke-linejoin="round"/><path d="M -230 -69.2820323027551 L -238.56406460551025 -89.99999999999994 L -200 -89.99999999999999 L -190.00000000000006 -138.5640646055102 L -130.71796769724497 -130 L -110.00000000000006 -138.56406460551025 L -110.00000000000006 -100.00000000000003 L -61.4359353944898 -90.00000000000004 L -69.99999999999999 -30.71796769724498 L -61.435935394489746 -10.00000000000005 L -99.99999999999997 -10.000000000000043 L -109.99999999999994 38.5640646055102 L -169.28203230275503 30.00000000000002 L -190.00000000000006 38.56406460551018 L -190 0 L -238.56406460551023 -10.000000000000007 Z" fill="#f59e0b" fill-opacity="0.4" stroke="#f59e0b" stroke-width="1.5" stroke-linejoin="round"/><path d="M -230 30.717967697244898 L -238.56406460551025 10.000000000000064 L -200 10.000000000000014 L -190.00000000000006 -38.5640646055102 L -130.71796769724497 -30.000000000000014 L -110.00000000000006 -38.564064605510254 L -110.00000000000006 -2.842170943040401e-14 L -61.4359353944898 9.999999999999957 L -69.99999999999999 69.28203230275503 L -61.435935394489746 89.99999999999994 L -99.99999999999997 89.99999999999996 L -109.99999999999994 138.5640646055102 L -169.28203230275503 130.00000000000003 L -190.00000000000006 138.56406460551017 L -190 100 L -238.56406460551023 90 Z" fill="#f59e0b" fill-opacity="0.4" stroke="#f59e0b" stroke-width="1.5" stroke-linejoin="round"/><path d="M -230 130.7179676972449 L -238.56406460551025 110.00000000000006 L -200 110.00000000000001 L -190.00000000000006 61.4359353944898 L -130.71796769724497 69.99999999999999 L -110.00000000000006 61.435935394489746 L -110.00000000000006 99.99999999999997 L -61.4359353944898 109.99999999999996 L -69.99999999999999 169.28203230275503 L -61.435935394489746 189.99999999999994 L -99.99999999999997 189.99999999999994 L -109.99999999999994 238.5640646055102 L -169.28203230275503 230 L -190.00000000000006 238.56406460551017 L -190 200 L -238.56406460551023 190 Z" fill="#f59e0b" fill-opacity="0.4" stroke="#f59e0b" stroke-width="1.5" stroke-linejoin="round"/><path d="M -230 230.7179676972449 L -238.56406460551025 210.00000000000006 L -200 210 L -190.00000000000006 161.4359353944898 L -130.71796769724497 170 L -110.00000000000006 161.43593539448975 L -110.00000000000006 199.99999999999997 L -61.4359353944898 209.99999999999994 L -69.99999999999999 269.282032302755 L -61.435935394489746 289.99999999999994 L -99.99999999999997 289.99999999999994 L -109.99999999999994 338.5640646055102 L -169.28203230275503 330 L -190.00000000000006 338.56406460551017 L -190 300 L -238.56406460551023 290 Z" fill="#f59e0b" fill-opacity="0.4" stroke="#f59e0b" stroke-width="1.5" stroke-linejoin="round"/><path d="M -230 330.7179676972449 L -238.56406460551025 310.00000000000006 L -200 310 L -190.00000000000006 261.4359353944898 L -130.71796769724497 270 L -110.00000000000006 261.4359353944898 L -110.00000000000006 300 L -61.4359353944898 309.99999999999994 L -69.99999999999999 369.282032302755 L -61.435935394489746 389.99999999999994 L -99.99999999999997 389.99999999999994 L -109.99999999999994 438.5640646055102 L -169.28203230275503 430 L -190.00000000000006 438.56406460551017 L -190 400 L -238.56406460551023 390 Z" fill="#f59e0b" fill-opacity="0.4" stroke="#f59e0b" stroke-width="1.5" stroke-linejoin="round"/><path d="M -130 -169.2820323027551 L -138.56406460551025 -189.99999999999994 L -100 -190 L -90.00000000000003 -238.5640646055102 L -30.717967697244973 -230 L -10.000000000000043 -238.56406460551025 L -10.000000000000043 -200.00000000000003 L 38.5640646055102 -190.00000000000006 L 30.00000000000002 -130.71796769724497 L 38.564064605510254 -110.00000000000006 L 2.842170943040401e-14 -110.00000000000006 L -9.999999999999943 -61.4359353944898 L -69.28203230275501 -69.99999999999999 L -90.00000000000006 -61.43593539448982 L -89.99999999999997 -100 L -138.56406460551023 -110.00000000000001 Z" fill="#f59e0b" fill-opacity="0.4" stroke="#f59e0b" stroke-width="1.5" stroke-linejoin="round"/><path d="M -130 -69.2820323027551 L -138.56406460551025 -89.99999999999994 L -100 -89.99999999999999 L -90.00000000000003 -138.5640646055102 L -30.717967697244973 -130 L -10.000000000000043 -138.56406460551025 L -10.000000000000043 -100.00000000000003 L 38.5640646055102 -90.00000000000004 L 30.00000000000002 -30.71796769724498 L 38.564064605510254 -10.00000000000005 L 2.842170943040401e-14 -10.000000000000043 L -9.999999999999943 38.5640646055102 L -69.28203230275501 30.00000000000002 L -90.00000000000006 38.56406460551018 L -89.99999999999997 0 L -138.56406460551023 -10.000000000000007 Z" fill="#f59e0b" fill-opacity="0.4" stroke="#f59e0b" stroke-width="1.5" stroke-linejoin="round"/><path d="M -130 30.717967697244898 L -138.56406460551025 10.000000000000064 L -100 10.000000000000014 L -90.00000000000003 -38.5640646055102 L -30.717967697244973 -30.000000000000014 L -10.000000000000043 -38.564064605510254 L -10.000000000000043 -2.842170943040401e-14 L 38.5640646055102 9.999999999999957 L 30.00000000000002 69.28203230275503 L 38.564064605510254 89.99999999999994 L 2.842170943040401e-14 89.99999999999996 L -9.999999999999943 138.5640646055102 L -69.28203230275501 130.00000000000003 L -90.00000000000006 138.56406460551017 L -89.99999999999997 100 L -138.56406460551023 90 Z" fill="#f59e0b" fill-opacity="0.4" stroke="#f59e0b" stroke-width="1.5" stroke-linejoin="round"/><path d="M -130 130.7179676972449 L -138.56406460551025 110.00000000000006 L -100 110.00000000000001 L -90.00000000000003 61.4359353944898 L -30.717967697244973 69.99999999999999 L -10.000000000000043 61.435935394489746 L -10.000000000000043 99.99999999999997 L 38.5640646055102 109.99999999999996 L 30.00000000000002 169.28203230275503 L 38.564064605510254 189.99999999999994 L 2.842170943040401e-14 189.99999999999994 L -9.999999999999943 238.5640646055102 L -69.28203230275501 230 L -90.00000000000006 238.56406460551017 L -89.99999999999997 200 L -138.56406460551023 190 Z" fill="#f59e0b" fill-opacity="0.4" stroke="#f59e0b" stroke-width="1.5" stroke-linejoin="round"/><path d="M -130 230.7179676972449 L -138.56406460551025 210.00000000000006 L -100 210 L -90.00000000000003 161.4359353944898 L -30.717967697244973 170 L -10.000000000000043 161.43593539448975 L -10.000000000000043 199.99999999999997 L 38.5640646055102 209.99999999999994 L 30.00000000000002 269.282032302755 L 38.564064605510254 289.99999999999994 L 2.842170943040401e-14 289.99999999999994 L -9.999999999999943 338.5640646055102 L -69.28203230275501 330 L -90.00000000000006 338.56406460551017 L -89.99999999999997 300 L -138.56406460551023 290 Z" fill="#f59e0b" fill-opacity="0.4" stroke="#f59e0b" stroke-width="1.5" stroke-linejoin="round"/><path d="M -130 330.7179676972449 L -138.56406460551025 310.00000000000006 L -100 310 L -90.00000000000003 261.4359353944898 L -30.717967697244973 270 L -10.000000000000043 261.4359353944898 L -10.000000000000043 300 L 38.5640646055102 309.99999999999994 L 30.00000000000002 369.282032302755 L 38.564064605510254 389.99999999999994 L 2.842170943040401e-14 389.99999999999994 L -9.999999999999943 438.5640646055102 L -69.28203230275501 430 L -90.00000000000006 438.56406460551017 L -89.99999999999997 400 L -138.56406460551023 390 Z" fill="#f59e0b" fill-opacity="0.4" stroke="#f59e0b" stroke-width="1.5" stroke-linejoin="round"/><path d="M -30.000000000000007 -169.2820323027551 L -38.564064605510254 -189.99999999999994 L 0 -190 L 9.999999999999964 -238.5640646055102 L 69.28203230275503 -230 L 89.99999999999996 -238.56406460551025 L 89.99999999999996 -200.00000000000003 L 138.5640646055102 -190.00000000000006 L 130.00000000000003 -130.71796769724497 L 138.56406460551025 -110.00000000000006 L 100.00000000000003 -110.00000000000006 L 90.00000000000006 -61.4359353944898 L 30.717967697244983 -69.99999999999999 L 9.999999999999936 -61.43593539448982 L 10.000000000000021 -100 L -38.564064605510225 -110.00000000000001 Z" fill="#f59e0b" fill-opacity="0.4" stroke="#f59e0b" stroke-width="1.5" stroke-linejoin="round"/><path d="M -30.000000000000007 -69.2820323027551 L -38.564064605510254 -89.99999999999994 L 0 -89.99999999999999 L 9.999999999999964 -138.5640646055102 L 69.28203230275503 -130 L 89.99999999999996 -138.56406460551025 L 89.99999999999996 -100.00000000000003 L 138.5640646055102 -90.00000000000004 L 130.00000000000003 -30.71796769724498 L 138.56406460551025 -10.00000000000005 L 100.00000000000003 -10.000000000000043 L 90.00000000000006 38.5640646055102 L 30.717967697244983 30.00000000000002 L 9.999999999999936 38.56406460551018 L 10.000000000000021 0 L -38.564064605510225 -10.000000000000007 Z" fill="#f59e0b" fill-opacity="0.4" stroke="#f59e0b" stroke-width="1.5" stroke-linejoin="round"/><path d="M -30.000000000000007 30.717967697244898 L -38.564064605510254 10.000000000000064 L 0 10.000000000000014 L 9.999999999999964 -38.5640646055102 L 69.28203230275503 -30.000000000000014 L 89.99999999999996 -38.564064605510254 L 89.99999999999996 -2.842170943040401e-14 L 138.5640646055102 9.999999999999957 L 130.00000000000003 69.28203230275503 L 138.56406460551025 89.99999999999994 L 100.00000000000003 89.99999999999996 L 90.00000000000006 138.5640646055102 L 30.717967697244983 130.00000000000003 L 9.999999999999936 138.56406460551017 L 10.000000000000021 100 L -38.564064605510225 90 Z" fill="#f59e0b" fill-opacity="0.4" stroke="#f59e0b" stroke-width="1.5" stroke-linejoin="round"/><path d="M -30.000000000000007 130.7179676972449 L -38.564064605510254 110.00000000000006 L 0 110.00000000000001 L 9.999999999999964 61.4359353944898 L 69.28203230275503 69.99999999999999 L 89.99999999999996 61.435935394489746 L 89.99999999999996 99.99999999999997 L 138.5640646055102 109.99999999999996 L 130.00000000000003 169.28203230275503 L 138.56406460551025 189.99999999999994 L 100.00000000000003 189.99999999999994 L 90.00000000000006 238.5640646055102 L 30.717967697244983 230 L 9.999999999999936 238.56406460551017 L 10.000000000000021 200 L -38.564064605510225 190 Z" fill="#f59e0b" fill-opacity="0.4" stroke="#f59e0b" stroke-width="1.5" stroke-linejoin="round"/><path d="M -30.000000000000007 230.7179676972449 L -38.564064605510254 210.00000000000006 L 0 210 L 9.999999999999964 161.4359353944898 L 69.28203230275503 170 L 89.99999999999996 161.43593539448975 L 89.99999999999996 199.99999999999997 L 138.5640646055102 209.99999999999994 L 130.00000000000003 269.282032302755 L 138.56406460551025 289.99999999999994 L 100.00000000000003 289.99999999999994 L 90.00000000000006 338.5640646055102 L 30.717967697244983 330 L 9.999999999999936 338.56406460551017 L 10.000000000000021 300 L -38.564064605510225 290 Z" fill="#f59e0b" fill-opacity="0.4" stroke="#f59e0b" stroke-width="1.5" stroke-linejoin="round"/><path d="M -30.000000000000007 330.7179676972449 L -38.564064605510254 310.00000000000006 L 0 310 L 9.999999999999964 261.4359353944898 L 69.28203230275503 270 L 89.99999999999996 261.4359353944898 L 89.99999999999996 300 L 138.5640646055102 309.99999999999994 L 130.00000000000003 369.282032302755 L 138.56406460551025 389.99999999999994 L 100.00000000000003 389.99999999999994 L 90.00000000000006 438.5640646055102 L 30.717967697244983 430 L 9.999999999999936 438.56406460551017 L 10.000000000000021 400 L -38.564064605510225 390 Z" fill="#f59e0b" fill-opacity="0.4" stroke="#f59e0b" stroke-width="1.5" stroke-linejoin="round"/><path d="M 69.99999999999999 -169.2820323027551 L 61.435935394489746 -189.99999999999994 L 100 -190 L 109.99999999999996 -238.5640646055102 L 169.28203230275503 -230 L 189.99999999999994 -238.56406460551025 L 189.99999999999994 -200.00000000000003 L 238.5640646055102 -190.00000000000006 L 230 -130.71796769724497 L 238.56406460551025 -110.00000000000006 L 200.00000000000003 -110.00000000000006 L 190.00000000000006 -61.4359353944898 L 130.71796769724497 -69.99999999999999 L 109.99999999999993 -61.43593539448982 L 110.00000000000001 -100 L 61.435935394489775 -110.00000000000001 Z" fill="#f59e0b" fill-opacity="0.4" stroke="#f59e0b" stroke-width="1.5" stroke-linejoin="round"/><path d="M 69.99999999999999 -69.2820323027551 L 61.435935394489746 -89.99999999999994 L 100 -89.99999999999999 L 109.99999999999996 -138.5640646055102 L 169.28203230275503 -130 L 189.99999999999994 -138.56406460551025 L 189.99999999999994 -100.00000000000003 L 238.5640646055102 -90.00000000000004 L 230 -30.71796769724498 L 238.56406460551025 -10.00000000000005 L 200.00000000000003 -10.000000000000043 L 190.00000000000006 38.5640646055102 L 130.71796769724497 30.00000000000002 L 109.99999999999993 38.56406460551018 L 110.00000000000001 0 L 61.435935394489775 -10.000000000000007 Z" fill="#f59e0b" fill-opacity="0.4" stroke="#f59e0b" stroke-width="1.5" stroke-linejoin="round"/><path d="M 69.99999999999999 30.717967697244898 L 61.435935394489746 10.000000000000064 L 100 10.000000000000014 L 109.99999999999996 -38.5640646055102 L 169.28203230275503 -30.000000000000014 L 189.99999999999994 -38.564064605510254 L 189.99999999999994 -2.842170943040401e-14 L 238.5640646055102 9.999999999999957 L 230 69.28203230275503 L 238.56406460551025 89.99999999999994 L 200.00000000000003 89.99999999999996 L 190.00000000000006 138.5640646055102 L 130.71796769724497 130.00000000000003 L 109.99999999999993 138.56406460551017 L 110.00000000000001 100 L 61.435935394489775 90 Z" fill="#f59e0b" fill-opacity="0.4" stroke="#f59e0b" stroke-width="1.5" stroke-linejoin="round"/><path d="M 69.99999999999999 130.7179676972449 L 61.435935394489746 110.00000000000006 L 100 110.00000000000001 L 109.99999999999996 61.4359353944898 L 169.28203230275503 69.99999999999999 L 189.99999999999994 61.435935394489746 L 189.99999999999994 99.99999999999997 L 238.5640646055102 109.99999999999996 L 230 169.28203230275503 L 238.56406460551025 189.99999999999994 L 200.00000000000003 189.99999999999994 L 190.00000000000006 238.5640646055102 L 130.71796769724497 230 L 109.99999999999993 238.56406460551017 L 110.00000000000001 200 L 61.435935394489775 190 Z" fill="#f59e0b" fill-opacity="0.4" stroke="#f59e0b" stroke-width="1.5" stroke-linejoin="round"/><path d="M 69.99999999999999 230.7179676972449 L 61.435935394489746 210.00000000000006 L 100 210 L 109.99999999999996 161.4359353944898 L 169.28203230275503 170 L 189.99999999999994 161.43593539448975 L 189.99999999999994 199.99999999999997 L 238.5640646055102 209.99999999999994 L 230 269.282032302755 L 238.56406460551025 289.99999999999994 L 200.00000000000003 289.99999999999994 L 190.00000000000006 338.5640646055102 L 130.71796769724497 330 L 109.99999999999993 338.56406460551017 L 110.00000000000001 300 L 61.435935394489775 290 Z" fill="#f59e0b" fill-opacity="0.4" stroke="#f59e0b" stroke-width="1.5" stroke-linejoin="round"/><path d="M 69.99999999999999 330.7179676972449 L 61.435935394489746 310.00000000000006 L 100 310 L 109.99999999999996 261.4359353944898 L 169.28203230275503 270 L 189.99999999999994 261.4359353944898 L 189.99999999999994 300 L 238.5640646055102 309.99999999999994 L 230 369.282032302755 L 238.56406460551025 389.99999999999994 L 200.00000000000003 389.99999999999994 L 190.00000000000006 438.5640646055102 L 130.71796769724497 430 L 109.99999999999993 438.56406460551017 L 110.00000000000001 400 L 61.435935394489775 390 Z" fill="#f59e0b" fill-opacity="0.4" stroke="#f59e0b" stroke-width="1.5" stroke-linejoin="round"/><path d="M 170 -169.2820323027551 L 161.43593539448975 -189.99999999999994 L 200 -190 L 209.99999999999994 -238.5640646055102 L 269.282032302755 -230 L 289.99999999999994 -238.56406460551025 L 289.99999999999994 -200.00000000000003 L 338.5640646055102 -190.00000000000006 L 330 -130.71796769724497 L 338.5640646055102 -110.00000000000006 L 300 -110.00000000000006 L 290.00000000000006 -61.4359353944898 L 230.71796769724497 -69.99999999999999 L 209.99999999999994 -61.43593539448982 L 210 -100 L 161.43593539448977 -110.00000000000001 Z" fill="#f59e0b" fill-opacity="0.4" stroke="#f59e0b" stroke-width="1.5" stroke-linejoin="round"/><path d="M 170 -69.2820323027551 L 161.43593539448975 -89.99999999999994 L 200 -89.99999999999999 L 209.99999999999994 -138.5640646055102 L 269.282032302755 -130 L 289.99999999999994 -138.56406460551025 L 289.99999999999994 -100.00000000000003 L 338.5640646055102 -90.00000000000004 L 330 -30.71796769724498 L 338.5640646055102 -10.00000000000005 L 300 -10.000000000000043 L 290.00000000000006 38.5640646055102 L 230.71796769724497 30.00000000000002 L 209.99999999999994 38.56406460551018 L 210 0 L 161.43593539448977 -10.000000000000007 Z" fill="#f59e0b" fill-opacity="0.4" stroke="#f59e0b" stroke-width="1.5" stroke-linejoin="round"/><path d="M 170 30.717967697244898 L 161.43593539448975 10.000000000000064 L 200 10.000000000000014 L 209.99999999999994 -38.5640646055102 L 269.282032302755 -30.000000000000014 L 289.99999999999994 -38.564064605510254 L 289.99999999999994 -2.842170943040401e-14 L 338.5640646055102 9.999999999999957 L 330 69.28203230275503 L 338.5640646055102 89.99999999999994 L 300 89.99999999999996 L 290.00000000000006 138.5640646055102 L 230.71796769724497 130.00000000000003 L 209.99999999999994 138.56406460551017 L 210 100 L 161.43593539448977 90 Z" fill="#f59e0b" fill-opacity="0.4" stroke="#f59e0b" stroke-width="1.5" stroke-linejoin="round"/><path d="M 170 130.7179676972449 L 161.43593539448975 110.00000000000006 L 200 110.00000000000001 L 209.99999999999994 61.4359353944898 L 269.282032302755 69.99999999999999 L 289.99999999999994 61.435935394489746 L 289.99999999999994 99.99999999999997 L 338.5640646055102 109.99999999999996 L 330 169.28203230275503 L 338.5640646055102 189.99999999999994 L 300 189.99999999999994 L 290.00000000000006 238.5640646055102 L 230.71796769724497 230 L 209.99999999999994 238.56406460551017 L 210 200 L 161.43593539448977 190 Z" fill="#f59e0b" fill-opacity="0.4" stroke="#f59e0b" stroke-width="1.5" stroke-linejoin="round"/><path d="M 170 230.7179676972449 L 161.43593539448975 210.00000000000006 L 200 210 L 209.99999999999994 161.4359353944898 L 269.282032302755 170 L 289.99999999999994 161.43593539448975 L 289.99999999999994 199.99999999999997 L 338.5640646055102 209.99999999999994 L 330 269.282032302755 L 338.5640646055102 289.99999999999994 L 300 289.99999999999994 L 290.00000000000006 338.5640646055102 L 230.71796769724497 330 L 209.99999999999994 338.56406460551017 L 210 300 L 161.43593539448977 290 Z" fill="#f59e0b" fill-opacity="0.4" stroke="#f59e0b" stroke-width="1.5" stroke-linejoin="round"/><path d="M 170 330.7179676972449 L 161.43593539448975 310.00000000000006 L 200 310 L 209.99999999999994 261.4359353944898 L 269.282032302755 270 L 289.99999999999994 261.4359353944898 L 289.99999999999994 300 L 338.5640646055102 309.99999999999994 L 330 369.282032302755 L 338.5640646055102 389.99999999999994 L 300 389.99999999999994 L 290.00000000000006 438.5640646055102 L 230.71796769724497 430 L 209.99999999999994 438.56406460551017 L 210 400 L 161.43593539448977 390 Z" fill="#f59e0b" fill-opacity="0.4" stroke="#f59e0b" stroke-width="1.5" stroke-linejoin="round"/><path d="M 270 -169.2820323027551 L 261.4359353944898 -189.99999999999994 L 300 -190 L 309.99999999999994 -238.5640646055102 L 369.282032302755 -230 L 389.99999999999994 -238.56406460551025 L 389.99999999999994 -200.00000000000003 L 438.5640646055102 -190.00000000000006 L 430 -130.71796769724497 L 438.5640646055102 -110.00000000000006 L 400 -110.00000000000006 L 390.00000000000006 -61.4359353944898 L 330.717967697245 -69.99999999999999 L 309.99999999999994 -61.43593539448982 L 310 -100 L 261.4359353944898 -110.00000000000001 Z" fill="#f59e0b" fill-opacity="0.4" stroke="#f59e0b" stroke-width="1.5" stroke-linejoin="round"/><path d="M 270 -69.2820323027551 L 261.4359353944898 -89.99999999999994 L 300 -89.99999999999999 L 309.99999999999994 -138.5640646055102 L 369.282032302755 -130 L 389.99999999999994 -138.56406460551025 L 389.99999999999994 -100.00000000000003 L 438.5640646055102 -90.00000000000004 L 430 -30.71796769724498 L 438.5640646055102 -10.00000000000005 L 400 -10.000000000000043 L 390.00000000000006 38.5640646055102 L 330.717967697245 30.00000000000002 L 309.99999999999994 38.56406460551018 L 310 0 L 261.4359353944898 -10.000000000000007 Z" fill="#f59e0b" fill-opacity="0.4" stroke="#f59e0b" stroke-width="1.5" stroke-linejoin="round"/><path d="M 270 30.717967697244898 L 261.4359353944898 10.000000000000064 L 300 10.000000000000014 L 309.99999999999994 -38.5640646055102 L 369.282032302755 -30.000000000000014 L 389.99999999999994 -38.564064605510254 L 389.99999999999994 -2.842170943040401e-14 L 438.5640646055102 9.999999999999957 L 430 69.28203230275503 L 438.5640646055102 89.99999999999994 L 400 89.99999999999996 L 390.00000000000006 138.5640646055102 L 330.717967697245 130.00000000000003 L 309.99999999999994 138.56406460551017 L 310 100 L 261.4359353944898 90 Z" fill="#f59e0b" fill-opacity="0.4" stroke="#f59e0b" stroke-width="1.5" stroke-linejoin="round"/><path d="M 270 130.7179676972449 L 261.4359353944898 110.00000000000006 L 300 110.00000000000001 L 309.99999999999994 61.4359353944898 L 369.282032302755 69.99999999999999 L 389.99999999999994 61.435935394489746 L 389.99999999999994 99.99999999999997 L 438.5640646055102 109.99999999999996 L 430 169.28203230275503 L 438.5640646055102 189.99999999999994 L 400 189.99999999999994 L 390.00000000000006 238.5640646055102 L 330.717967697245 230 L 309.99999999999994 238.56406460551017 L 310 200 L 261.4359353944898 190 Z" fill="#f59e0b" fill-opacity="0.4" stroke="#f59e0b" stroke-width="1.5" stroke-linejoin="round"/><path d="M 270 230.7179676972449 L 261.4359353944898 210.00000000000006 L 300 210 L 309.99999999999994 161.4359353944898 L 369.282032302755 170 L 389.99999999999994 161.43593539448975 L 389.99999999999994 199.99999999999997 L 438.5640646055102 209.99999999999994 L 430 269.282032302755 L 438.5640646055102 289.99999999999994 L 400 289.99999999999994 L 390.00000000000006 338.5640646055102 L 330.717967697245 330 L 309.99999999999994 338.56406460551017 L 310 300 L 261.4359353944898 290 Z" fill="#f59e0b" fill-opacity="0.4" stroke="#f59e0b" stroke-width="1.5" stroke-linejoin="round"/><path d="M 270 330.7179676972449 L 261.4359353944898 310.00000000000006 L 300 310 L 309.99999999999994 261.4359353944898 L 369.282032302755 270 L 389.99999999999994 261.4359353944898 L 389.99999999999994 300 L 438.5640646055102 309.99999999999994 L 430 369.282032302755 L 438.5640646055102 389.99999999999994 L 400 389.99999999999994 L 390.00000000000006 438.5640646055102 L 330.717967697245 430 L 309.99999999999994 438.56406460551017 L 310 400 L 261.4359353944898 390 Z" fill="#f59e0b" fill-opacity="0.4" stroke="#f59e0b" stroke-width="1.5" stroke-linejoin="round"/></g></svg>